<svg width="40" height="40" viewBox="0 0 40 40" fill="none" xmlns="http://www.w3.org/2000/svg">
<g id="icomoon-free:mail4" clip-path="url(#clip0_56_231)">
<path id="Vector" d="M20 0C14.6957 0 9.60859 2.10714 5.85786 5.85786C2.10714 9.60859 0 14.6957 0 20C0 25.3043 2.10714 30.3914 5.85786 34.1421C9.60859 37.8929 14.6957 40 20 40C25.3043 40 30.3914 37.8929 34.1421 34.1421C37.8929 30.3914 40 25.3043 40 20C40 14.6957 37.8929 9.60859 34.1421 5.85786C30.3914 2.10714 25.3043 0 20 0ZM10 10H30C30.3575 10 30.7025 10.0775 31.0225 10.22L20 23.0775L8.9775 10.22C9.29857 10.0741 9.64732 9.99904 10 10ZM7.5 27.5V12.5L7.505 12.3425L14.835 20.895L7.585 28.145C7.52773 27.9348 7.49914 27.7178 7.5 27.5ZM30 30H10C9.78 30 9.5625 29.97 9.355 29.915L16.47 22.8L20.0025 26.92L23.535 22.8L30.65 29.915C30.4398 29.9723 30.2228 30.0009 30.005 30H30ZM32.5 27.5C32.5 27.72 32.47 27.9375 32.415 28.145L25.165 20.895L32.495 12.3425L32.5 12.5V27.5Z" fill="#1B1C1E"/>
</g>
<defs>
<clipPath id="clip0_56_231">
<rect width="40" height="40" fill="white"/>
</clipPath>
</defs>
</svg>
