<svg width="41" height="40" viewBox="0 0 41 40" fill="none" xmlns="http://www.w3.org/2000/svg">
<g id="Icons" clip-path="url(#clip0_343_704)">
<path id="Vector" d="M36.5 0H4C1.9375 0 0.25 1.6875 0.25 3.75V36.25C0.25 38.3125 1.9375 40 4 40H36.5C38.5625 40 40.25 38.3125 40.25 36.25V3.75C40.25 1.6875 38.5625 0 36.5 0ZM32.6475 28L28.99 28.055C28.99 28.055 28.2 28.2125 27.17 27.5C25.8025 26.5625 24.5125 24.1175 23.505 24.4375C22.49 24.7575 22.52 26.9525 22.52 26.9525C22.52 26.9525 22.5275 27.4225 22.2925 27.67C22.0425 27.9425 21.5425 27.9975 21.5425 27.9975H19.91C19.91 27.9975 16.3 28.2175 13.12 24.9025C9.65 21.2925 6.59 14.13 6.59 14.13C6.59 14.13 6.41 13.66 6.605 13.435C6.8225 13.1775 7.41 13.1625 7.41 13.1625L11.325 13.14C11.325 13.14 11.6925 13.2025 11.9575 13.3975C12.1775 13.555 12.2925 13.8575 12.2925 13.8575C12.2925 13.8575 12.925 15.46 13.7625 16.905C15.395 19.725 16.16 20.3425 16.715 20.045C17.52 19.6075 17.2775 16.0525 17.2775 16.0525C17.2775 16.0525 17.2925 14.7625 16.8725 14.1925C16.545 13.7475 15.9275 13.615 15.6625 13.5825C15.4425 13.55 15.8025 13.0425 16.2725 12.81C16.975 12.465 18.2175 12.4425 19.6875 12.4575C20.8275 12.465 21.165 12.5425 21.61 12.645C22.9625 12.9725 22.5 14.23 22.5 17.2475C22.5 18.2175 22.3275 19.575 23.0225 20.02C23.32 20.215 24.0525 20.05 25.89 16.935C26.7575 15.4575 27.4125 13.725 27.4125 13.725C27.4125 13.725 27.5525 13.4125 27.7725 13.28C28 13.1475 28.305 13.1875 28.305 13.1875L32.4225 13.165C32.4225 13.165 33.6575 13.0175 33.86 13.58C34.07 14.165 33.4 15.5325 31.72 17.775C28.9625 21.455 28.65 21.11 30.9475 23.235C33.135 25.2675 33.5875 26.2575 33.6675 26.3825C34.5575 27.8825 32.6525 28 32.6525 28H32.6475Z" fill="#1B1C1E"/>
</g>
<defs>
<clipPath id="clip0_343_704">
<rect width="40" height="40" fill="white" transform="translate(0.25)"/>
</clipPath>
</defs>
</svg>
