<svg width="40" height="40" viewBox="0 0 40 40" fill="none" xmlns="http://www.w3.org/2000/svg">
<path id="Vector" fill-rule="evenodd" clip-rule="evenodd" d="M34.1016 5.8126C32.2657 3.96333 30.0807 2.49721 27.6735 1.4994C25.2663 0.501587 22.6849 -0.00804642 20.0791 9.60501e-05C9.15656 9.60501e-05 0.266562 8.8901 0.266562 19.8201C0.266562 23.3126 1.18156 26.7276 2.91406 29.7276L0.101562 40.0001L10.6091 37.2426C13.514 38.8249 16.7687 39.6552 20.0766 39.6576H20.0841C31.0066 39.6576 39.9041 30.7676 39.9041 19.8376C39.9107 17.2327 39.4011 14.6523 38.4047 12.2455C37.4084 9.83863 35.945 7.65309 34.0991 5.8151L34.1016 5.8126ZM25.7341 22.3601C26.1866 22.5251 28.6241 23.7201 29.1166 23.9701L29.1191 23.9676C29.2123 24.0147 29.2995 24.0572 29.3805 24.0968C29.7339 24.2692 29.9685 24.3836 30.0641 24.5626C30.1891 24.7676 30.1891 25.7576 29.7741 26.9151C29.3591 28.0726 27.3816 29.1276 26.4291 29.2676C25.5766 29.3926 24.4991 29.4476 23.3116 29.0726C22.5941 28.8376 21.6716 28.5326 20.4916 28.0251C15.8788 26.0356 12.7535 21.5757 12.1304 20.6866C12.0825 20.6182 12.0494 20.571 12.0316 20.5476L12.0247 20.5384C11.751 20.1718 10.0091 17.839 10.0091 15.4226C10.0091 13.1375 11.1362 11.9378 11.6499 11.391C11.6842 11.3545 11.7158 11.3209 11.7441 11.2901C12.1966 10.7976 12.7366 10.6726 13.0641 10.6726C13.3916 10.6726 13.7191 10.6726 14.0091 10.6876C14.046 10.6897 14.0845 10.6896 14.1244 10.6895C14.4143 10.6886 14.7772 10.6875 15.1266 11.5401C15.1559 11.6121 15.1884 11.6916 15.2234 11.7774C15.6709 12.8746 16.5331 14.9882 16.6491 15.2201C16.7741 15.4701 16.8541 15.7601 16.6891 16.0876C16.6637 16.1391 16.6404 16.1875 16.6182 16.2335C16.4962 16.4869 16.4081 16.6697 16.1966 16.9151C16.1092 17.0164 16.0201 17.1259 15.9314 17.2349C15.766 17.438 15.6021 17.6394 15.4541 17.7826C15.2016 18.0251 14.9441 18.2976 15.2341 18.7901C15.5241 19.2826 16.5216 20.9076 17.9916 22.2201C19.5629 23.6231 20.9356 24.2208 21.6368 24.5261C21.779 24.5881 21.8935 24.6379 21.9766 24.6801C22.4691 24.9301 22.7566 24.8826 23.0466 24.5551C23.3366 24.2201 24.2891 23.1026 24.6166 22.6101C24.9516 22.1101 25.2816 22.1951 25.7341 22.3601Z" fill="#D4D6DA"/>
</svg>
