<svg width="200" height="200" viewBox="0 0 200 200" fill="none" xmlns="http://www.w3.org/2000/svg">
<path fill-rule="evenodd" clip-rule="evenodd" d="M176.777 25.5924C176.777 22.975 174.655 20.8531 172.038 20.8531C170.487 20.8531 169.111 21.5977 168.246 22.7488H145.497C144.365 22.7488 143.255 22.3389 141.921 21.4491C140.81 20.7087 139.748 19.7858 138.478 18.6822C138.134 18.3834 137.775 18.0714 137.395 17.7462C133.992 14.8293 129.522 11.3744 122.749 11.3744C115.975 11.3744 111.505 14.8293 108.102 17.7462C107.722 18.0714 107.363 18.3834 107.019 18.6822C105.749 19.7858 104.687 20.7087 103.577 21.4491C103.325 21.617 103.081 21.7678 102.844 21.9019V12.6316C105.085 11.5667 106.635 9.28189 106.635 6.63507C106.635 2.97062 103.664 0 100 0C96.3355 0 93.3649 2.97062 93.3649 6.63507C93.3649 9.28189 94.9147 11.5667 97.1564 12.6316V21.9021C96.9189 21.7679 96.675 21.6171 96.4232 21.4491C95.3125 20.7087 94.2504 19.7858 92.9802 18.6822C92.6364 18.3834 92.2773 18.0714 91.8978 17.7462C88.4949 14.8293 84.0243 11.3744 77.251 11.3744C70.4778 11.3744 66.0072 14.8293 62.6042 17.7462C62.2258 18.0706 61.8676 18.3818 61.5246 18.6798L61.5227 18.6815L61.5218 18.6823C60.2516 19.7859 59.1895 20.7087 58.0789 21.4491C56.7443 22.3389 55.6348 22.7488 54.5022 22.7488H31.7539C30.8892 21.5977 29.5126 20.8531 27.9621 20.8531C25.3446 20.8531 23.2227 22.975 23.2227 25.5924C23.2227 26.9766 23.8161 28.2222 24.7624 29.0886L0.133282 81.8898C-0.0406809 82.2628 -0.0445169 82.6928 0.122764 83.0688C6.01108 96.3038 16.9098 103.087 27.9621 103.087C35.4976 103.087 42.9617 99.9339 48.8152 93.7323V139.338L100 173.461L151.185 139.338V93.7323C157.038 99.9339 164.502 103.087 172.038 103.087C183.09 103.087 193.989 96.3038 199.877 83.0688C200.045 82.6928 200.041 82.2628 199.867 81.8898L175.238 29.0886C176.184 28.2222 176.777 26.9766 176.777 25.5924ZM54.5022 28.436C57.1611 28.436 59.3692 27.4241 61.2336 26.1812C62.6778 25.2184 64.0957 23.984 65.3973 22.8508L65.3981 22.8501C65.7075 22.5808 66.0104 22.3171 66.3054 22.0642C69.5375 19.2939 72.6499 17.0616 77.251 17.0616C81.8522 17.0616 84.9646 19.2939 88.1966 22.0642C88.4919 22.3173 88.795 22.5812 89.1047 22.8508C90.4064 23.984 91.8243 25.2184 93.2685 26.1812C94.424 26.9515 95.7114 27.6331 97.1564 28.04V40.7583H48.8152V66.9349L31.1618 29.0886C31.3786 28.89 31.577 28.6715 31.7539 28.436H54.5022ZM138.766 26.1812C140.631 27.4241 142.839 28.436 145.497 28.436H168.246C168.423 28.6715 168.621 28.89 168.838 29.0886L151.185 66.9349V40.7583H102.844V28.0399C104.288 27.633 105.576 26.9515 106.731 26.1812C108.175 25.2184 109.593 23.984 110.895 22.8508C111.205 22.5812 111.508 22.3174 111.803 22.0642C115.035 19.2939 118.148 17.0616 122.749 17.0616C127.35 17.0616 130.462 19.2939 133.694 22.0642C133.99 22.3174 134.293 22.5812 134.602 22.8508C135.904 23.984 137.322 25.2184 138.766 26.1812ZM173.46 81.0691V32.004L196.346 81.0691H173.46ZM29.3839 81.0691V32.004L48.8152 73.6618V81.0691H29.3839ZM26.5403 32.004V81.0691H3.65387L26.5403 32.004ZM100 166.752L147.393 134.595L147.248 44.6965L52.7525 44.6956L52.6062 135.543L100 166.752ZM170.616 81.0691V32.004L151.185 73.6617V81.0691H170.616Z" fill="#232B4B"/>
<path d="M109.499 72.9135V65.988H112.322V59.7402H117.062V71.1308C115.137 71.9005 112.269 72.5204 109.499 72.9135Z" fill="#FEFCFD"/>
<path d="M115.683 72.6119L112.869 75.5548C111.854 75.9729 110.623 76.32 109.235 76.5932C105.217 77.3839 99.9762 77.5371 95.0957 77.0757C94.0149 76.9735 92.9533 76.8413 91.9279 76.6796C90.1023 76.3916 88.3964 76.0107 86.905 75.5409L84.1433 72.4936C86.1023 73.0675 88.3632 73.5163 90.7785 73.8391C93.7014 74.2298 96.8631 74.4378 100.011 74.4571C103.238 74.4769 106.455 74.2985 109.391 73.9135C111.697 73.6111 113.841 73.1798 115.683 72.6119Z" fill="#FEFCFD"/>
<path d="M95.1276 85.576L95.5081 78.088C100.314 78.4996 105.431 78.3315 109.422 77.5463C110.608 77.3128 111.703 77.0233 112.664 76.6746V77.1844L113.302 83.3705C110.573 84.85 107.429 85.3274 104.282 85.7355C101.278 86.1251 98.1713 85.9534 95.1276 85.576Z" fill="#FEFCFD"/>
<path d="M94.1648 85.4484C91.2399 85.0282 88.5685 84.3153 86.5161 83.3492L87.1186 77.1831V76.6207C88.539 77.0375 90.1158 77.377 91.7776 77.6391C92.6773 77.781 93.6029 77.9004 94.5434 77.9971L94.1648 85.4484Z" fill="#FEFCFD"/>
<path d="M89.1262 93.1655C87.8128 92.7595 86.6521 92.281 85.6961 91.7402L86.4162 84.3712C88.6656 85.3757 91.5154 86.0854 94.5589 86.4827C97.61 86.881 100.784 87.0991 103.89 86.7604L104.325 94.5069C99.0942 94.9979 93.3705 94.4777 89.1262 93.1655Z" fill="#FEFCFD"/>
<path d="M104.853 86.6403C107.724 86.2605 110.725 85.7709 113.409 84.4101L114.166 91.7508C112.895 92.5196 111.338 93.1345 109.592 93.5991C108.247 93.9571 106.797 94.2242 105.289 94.4043L104.853 86.6403Z" fill="#FEFCFD"/>
<path d="M88.6059 102.184L89.4063 94.2616C93.8505 95.5289 99.6461 95.9816 104.885 95.4271C106.412 95.2655 107.897 95.0179 109.29 94.6782L110.094 102.822C107.218 103.621 103.934 103.981 100.613 103.961C100.415 103.959 100.216 103.957 100.018 103.953L99.9187 103.951C99.3129 103.938 98.7071 103.912 98.1035 103.874C98.0733 103.872 98.0432 103.87 98.013 103.868C97.9424 103.864 97.8718 103.859 97.8013 103.854C94.5324 103.628 91.3474 103.048 88.6059 102.184Z" fill="#FEFCFD"/>
<path d="M110.238 94.4287C111.722 94.008 113.091 93.4721 114.275 92.8098L115.087 100.689C113.912 101.439 112.545 102.053 111.039 102.539L110.238 94.4287Z" fill="#FEFCFD"/>
<path d="M87.6647 101.869C86.6339 101.505 85.6804 101.099 84.8247 100.657L85.5936 92.7893C86.4434 93.2347 87.4103 93.6298 88.4624 93.9734L87.6647 101.869Z" fill="#FEFCFD"/>
<path d="M90.9595 112.213C88.3815 111.568 85.9944 110.698 83.9442 109.667L84.7235 101.693C85.7006 102.174 86.7798 102.607 87.9338 102.987C90.8435 103.946 94.2493 104.581 97.7345 104.823C97.8373 104.83 97.9403 104.837 98.0433 104.844C98.5377 104.875 99.0336 104.898 99.5299 104.912V113.421C96.5832 113.318 93.6691 112.891 90.9595 112.213Z" fill="#FEFCFD"/>
<path d="M110.752 103.643C112.375 103.164 113.88 102.542 115.198 101.76L116.016 109.696C113.224 111.389 110.009 112.454 106.637 113C104.624 113.326 102.559 113.465 100.498 113.443V104.931C104.077 104.961 107.644 104.561 110.752 103.643Z" fill="#FEFCFD"/>
<path d="M90.4292 121.356L91.2665 113.287C94.0415 113.942 97.0098 114.339 100.003 114.407C102.104 114.454 104.22 114.339 106.292 114.036L107.2 121.796C101.714 122.618 95.5692 122.44 90.4292 121.356Z" fill="#FEFCFD"/>
<path d="M89.4781 121.142C86.979 120.544 84.7753 119.726 83.0607 118.708L83.8433 110.7C85.7761 111.64 87.9705 112.438 90.3177 113.051L89.4781 121.142Z" fill="#FEFCFD"/>
<path d="M107.248 113.882C110.4 113.326 113.431 112.318 116.125 110.759L116.945 118.707C114.599 120.078 111.54 121.054 108.157 121.642L107.248 113.882Z" fill="#FEFCFD"/>
<path d="M107.812 122.684C111.421 122.103 114.759 121.087 117.347 119.595L121.413 124.567C108.531 130.807 91.4692 130.807 78.4946 124.268L82.6499 119.593C84.5894 120.727 87.0587 121.601 89.7977 122.212C95.2864 123.437 101.946 123.629 107.812 122.684Z" fill="#FEFCFD"/>
<path d="M78.199 125.12C91.4692 131.755 108.531 131.755 121.781 125.561V131.51C115.509 134.716 107.539 136.411 99.7192 136.469C91.8939 136.528 84.2601 134.616 78.2192 131.192L78.199 125.12Z" fill="#FEFCFD"/>
<path d="M55.4499 133.655L99.9997 162.565L144.549 132.707V112.797H117.309L117.925 118.77L122.749 124.567V132.101L122.489 132.237C116.016 135.612 107.781 137.38 99.7264 137.44C91.673 137.501 83.7554 135.522 77.4932 131.895L77.2512 131.755V131.068V124.229L82.0825 118.765L82.6657 112.797H55.4499V133.655Z" fill="#232B4B"/>
<path d="M82.9585 71.1161V59.7402H87.6777V65.988H90.5012V72.8005C87.7273 72.4034 84.9929 71.8382 82.9585 71.1161Z" fill="#FEFCFD"/>
<path d="M99.5299 73.4813C96.7316 73.4467 94.0788 73.2615 91.4692 72.931V65.988H94.333V59.7402H97.1564V65.988H99.5299V73.4813Z" fill="#FEFCFD"/>
<path fill-rule="evenodd" clip-rule="evenodd" d="M77.2512 124.229V131.068V131.755L77.4932 131.895C83.7554 135.522 91.673 137.501 99.7264 137.44C107.781 137.38 116.016 135.612 122.489 132.237L122.749 132.101V124.567L117.925 118.77L117.309 112.797L113.632 77.1343V76.1596L118.03 71.6519V58.769H111.354V65.0168L106.655 65.0156V58.7678L101.896 58.769V65.0168H98.1244V58.769H93.3649V65.0168H88.6458V58.769H81.9905V71.6444L86.1506 76.1521V77.1356L82.6657 112.797L82.0825 118.765L77.2512 124.229ZM86.5161 83.3492C88.5685 84.3153 91.2399 85.0282 94.1648 85.4484L94.5434 77.9971C93.6029 77.9004 92.6773 77.781 91.7776 77.6391C90.1158 77.377 88.539 77.0375 87.1186 76.6207V77.1831L86.5161 83.3492ZM95.5081 78.088L95.1276 85.576C98.1713 85.9534 101.278 86.1251 104.282 85.7355C107.429 85.3274 110.573 84.85 113.302 83.3705L112.664 77.1844V76.6746C111.703 77.0233 110.608 77.3128 109.422 77.5463C105.431 78.3315 100.314 78.4996 95.5081 78.088ZM112.869 75.5548L115.683 72.6119C113.841 73.1798 111.697 73.6111 109.391 73.9135C106.455 74.2985 103.238 74.4769 100.011 74.4571C96.8631 74.4378 93.7014 74.2298 90.7785 73.8391C88.3632 73.5163 86.1023 73.0675 84.1433 72.4936L86.905 75.5409C88.3964 76.0107 90.1023 76.3916 91.9279 76.6796C92.9533 76.8413 94.0149 76.9735 95.0957 77.0757C99.9762 77.5371 105.217 77.3839 109.235 76.5932C110.623 76.32 111.854 75.9729 112.869 75.5548ZM82.9585 59.7402V71.1161C84.9929 71.8382 87.7273 72.4034 90.5012 72.8005V65.988H87.6777V59.7402H82.9585ZM91.4692 72.931C94.0788 73.2615 96.7316 73.4467 99.5299 73.4813V65.988H97.1564V59.7402H94.333V65.988H91.4692V72.931ZM100.498 65.988V73.4873C103.37 73.4872 105.905 73.3652 108.531 73.0417V66.0257L105.687 65.9868V59.739L102.864 59.7402V65.988H100.498ZM109.499 65.988V72.9135C112.269 72.5204 115.137 71.9005 117.062 71.1308V59.7402H112.322V65.988H109.499ZM113.409 84.4101C110.725 85.7709 107.724 86.2605 104.853 86.6403L105.289 94.4043C106.797 94.2242 108.247 93.9571 109.592 93.5991C111.338 93.1345 112.895 92.5196 114.166 91.7508L113.409 84.4101ZM114.275 92.8098C113.091 93.4721 111.722 94.008 110.238 94.4287L111.039 102.539C112.545 102.053 113.912 101.439 115.087 100.689L114.275 92.8098ZM115.198 101.76C113.88 102.542 112.375 103.164 110.752 103.643C107.644 104.561 104.077 104.961 100.498 104.931V113.443C102.559 113.465 104.624 113.326 106.637 113C110.009 112.454 113.224 111.389 116.016 109.696L115.198 101.76ZM116.125 110.759C113.431 112.318 110.4 113.326 107.248 113.882L108.157 121.642C111.54 121.054 114.599 120.078 116.945 118.707L116.125 110.759ZM117.347 119.595C114.759 121.087 111.421 122.103 107.812 122.684C101.946 123.629 95.2864 123.437 89.7977 122.212C87.0587 121.601 84.5894 120.727 82.6499 119.593L78.4946 124.268C91.4692 130.807 108.531 130.807 121.413 124.567L117.347 119.595ZM121.781 125.561C108.531 131.755 91.4692 131.755 78.199 125.12L78.2192 131.192C84.2601 134.616 91.8939 136.528 99.7192 136.469C107.539 136.411 115.509 134.716 121.781 131.51V125.561ZM83.0607 118.708C84.7753 119.726 86.979 120.544 89.4781 121.142L90.3177 113.051C87.9705 112.438 85.7761 111.64 83.8433 110.7L83.0607 118.708ZM83.9442 109.667C85.9944 110.698 88.3815 111.568 90.9595 112.213C93.6691 112.891 96.5832 113.318 99.5299 113.421V104.912C99.0336 104.898 98.5377 104.875 98.0433 104.844C97.9403 104.837 97.8373 104.83 97.7345 104.823C94.2493 104.581 90.8435 103.946 87.9338 102.987C86.7798 102.607 85.7006 102.174 84.7235 101.693L83.9442 109.667ZM84.8247 100.657C85.6804 101.099 86.6339 101.505 87.6647 101.869L88.4624 93.9734C87.4103 93.6298 86.4434 93.2347 85.5936 92.7893L84.8247 100.657ZM85.6961 91.7402C86.6521 92.281 87.8128 92.7595 89.1262 93.1655C93.3705 94.4777 99.0942 94.9979 104.325 94.5069L103.89 86.7604C100.784 87.0991 97.61 86.881 94.5589 86.4827C91.5154 86.0854 88.6656 85.3757 86.4162 84.3712L85.6961 91.7402ZM89.4063 94.2616L88.6059 102.184C91.3474 103.048 94.5324 103.628 97.8013 103.854C97.8718 103.859 97.9424 103.864 98.013 103.868C98.0432 103.87 98.0733 103.872 98.1035 103.874C98.7071 103.912 99.3129 103.938 99.9187 103.951L100.018 103.953C100.216 103.957 100.415 103.959 100.613 103.961C103.934 103.981 107.218 103.621 110.094 102.822L109.29 94.6782C107.897 95.0179 106.412 95.2655 104.885 95.4271C99.6461 95.9816 93.8505 95.5289 89.4063 94.2616ZM91.2665 113.287L90.4292 121.356C95.5692 122.44 101.714 122.618 107.2 121.796L106.292 114.036C104.22 114.339 102.104 114.454 100.003 114.407C97.0098 114.339 94.0415 113.942 91.2665 113.287Z" fill="#232B4B"/>
<path fill-rule="evenodd" clip-rule="evenodd" d="M86.5161 83.3492C88.5685 84.3153 91.2399 85.0282 94.1648 85.4484L94.5434 77.9971C93.6029 77.9004 92.6773 77.781 91.7776 77.6391C90.1158 77.377 88.539 77.0375 87.1186 76.6207V77.1831L86.5161 83.3492ZM95.5081 78.088L95.1276 85.576C98.1713 85.9534 101.278 86.1251 104.282 85.7355C107.429 85.3274 110.573 84.85 113.302 83.3705L112.664 77.1844V76.6746C111.703 77.0233 110.608 77.3128 109.422 77.5463C105.431 78.3315 100.314 78.4996 95.5081 78.088ZM112.869 75.5548L115.683 72.6119C113.841 73.1798 111.697 73.6111 109.391 73.9135C106.455 74.2985 103.238 74.4769 100.011 74.4571C96.8631 74.4378 93.7014 74.2298 90.7785 73.8391C88.3632 73.5163 86.1023 73.0675 84.1433 72.4936L86.905 75.5409C88.3964 76.0107 90.1023 76.3916 91.9279 76.6796C92.9533 76.8413 94.0149 76.9735 95.0957 77.0757C99.9762 77.5371 105.217 77.3839 109.235 76.5932C110.623 76.32 111.854 75.9729 112.869 75.5548ZM109.499 65.988V72.9135C112.269 72.5204 115.137 71.9005 117.062 71.1308V59.7402H112.322V65.988H109.499ZM113.409 84.4101C110.725 85.7709 107.724 86.2605 104.853 86.6403L105.289 94.4043C106.797 94.2242 108.247 93.9571 109.592 93.5991C111.338 93.1345 112.895 92.5196 114.166 91.7508L113.409 84.4101ZM114.275 92.8098C113.091 93.4721 111.722 94.008 110.238 94.4287L111.039 102.539C112.545 102.053 113.912 101.439 115.087 100.689L114.275 92.8098ZM115.198 101.76C113.88 102.542 112.375 103.164 110.752 103.643C107.644 104.561 104.077 104.961 100.498 104.931V113.443C102.559 113.465 104.624 113.326 106.637 113C110.009 112.454 113.224 111.389 116.016 109.696L115.198 101.76ZM116.125 110.759C113.431 112.318 110.4 113.326 107.248 113.882L108.157 121.642C111.54 121.054 114.599 120.078 116.945 118.707L116.125 110.759ZM117.347 119.595C114.759 121.087 111.421 122.103 107.812 122.684C101.946 123.629 95.2864 123.437 89.7977 122.212C87.0587 121.601 84.5894 120.727 82.6499 119.593L78.4946 124.268C91.4692 130.807 108.531 130.807 121.413 124.567L117.347 119.595ZM121.781 125.561C108.531 131.755 91.4692 131.755 78.199 125.12L78.2192 131.192C84.2601 134.616 91.8939 136.528 99.7192 136.469C107.539 136.411 115.509 134.716 121.781 131.51V125.561ZM83.0607 118.708C84.7753 119.726 86.979 120.544 89.4781 121.142L90.3177 113.051C87.9705 112.438 85.7761 111.64 83.8433 110.7L83.0607 118.708ZM83.9442 109.667C85.9944 110.698 88.3815 111.568 90.9595 112.213C93.6691 112.891 96.5832 113.318 99.5299 113.421V104.912C99.0336 104.898 98.5377 104.875 98.0433 104.844C97.9403 104.837 97.8373 104.83 97.7345 104.823C94.2493 104.581 90.8435 103.946 87.9338 102.987C86.7798 102.607 85.7006 102.174 84.7235 101.693L83.9442 109.667ZM84.8247 100.657C85.6804 101.099 86.6339 101.505 87.6647 101.869L88.4624 93.9734C87.4103 93.6298 86.4434 93.2347 85.5936 92.7893L84.8247 100.657ZM85.6961 91.7402C86.6521 92.281 87.8128 92.7595 89.1262 93.1655C93.3705 94.4777 99.0942 94.9979 104.325 94.5069L103.89 86.7604C100.784 87.0991 97.61 86.881 94.5589 86.4827C91.5154 86.0854 88.6656 85.3757 86.4162 84.3712L85.6961 91.7402ZM89.4063 94.2616L88.6059 102.184C91.3474 103.048 94.5324 103.628 97.8013 103.854C97.8718 103.859 97.9424 103.864 98.013 103.868C98.0432 103.87 98.0733 103.872 98.1035 103.874C98.7071 103.912 99.3129 103.938 99.9187 103.951L100.018 103.953C100.216 103.957 100.415 103.959 100.613 103.961C103.934 103.981 107.218 103.621 110.094 102.822L109.29 94.6782C107.897 95.0179 106.412 95.2655 104.885 95.4271C99.6461 95.9816 93.8505 95.5289 89.4063 94.2616ZM91.2665 113.287L90.4292 121.356C95.5692 122.44 101.714 122.618 107.2 121.796L106.292 114.036C104.22 114.339 102.104 114.454 100.003 114.407C97.0098 114.339 94.0415 113.942 91.2665 113.287Z" fill="#FEFCFD"/>
<path fill-rule="evenodd" clip-rule="evenodd" d="M100 166.752L147.393 134.595L147.248 44.6965L52.7525 44.6956L52.6062 135.543L100 166.752ZM99.9997 162.565L55.4499 133.655V112.797H82.6657L86.1506 77.1356V76.1521L81.9905 71.6444V58.769H88.6458V65.0168H93.3649V58.769H98.1244V65.0168H101.896V58.769L106.655 58.7678V65.0156L111.354 65.0168V58.769H118.03V71.6519L113.632 76.1596V77.1343L117.309 112.797H144.549V132.707L99.9997 162.565Z" fill="#FEFCFD"/>
<path d="M100.498 73.4873V65.988H102.864V59.7402L105.687 59.739V65.9868L108.531 66.0257V73.0417C105.905 73.3652 103.37 73.4872 100.498 73.4873Z" fill="#FEFCFD"/>
<path fill-rule="evenodd" clip-rule="evenodd" d="M16.8517 120.379L17.3831 120.852C19.2014 122.469 21.1463 124.76 22.0108 126.843C22.4415 127.881 22.6365 128.945 22.3203 129.866C21.9915 130.823 21.1584 131.497 19.8291 131.831C18.6872 132.118 17.7473 131.857 17.0586 131.171C16.4005 130.515 16.0217 129.521 15.8341 128.425C15.4574 126.224 15.8075 123.35 16.6167 121.048L16.8517 120.379ZM27.6494 127.021L28.0383 127.613C29.5442 129.907 30.172 132.591 30.0307 134.682C29.9603 135.725 29.6955 136.667 29.2053 137.338C28.6979 138.034 27.9495 138.43 27.0172 138.319C26.1104 138.212 25.4565 137.714 25.0687 136.972C24.6931 136.254 24.5749 135.329 24.6467 134.328C24.7907 132.321 25.7102 129.835 27.2473 127.605L27.6494 127.021ZM10.9005 134.507L11.6145 134.612C14.0573 134.971 17.2678 136.01 19.4395 137.475C20.5199 138.204 21.409 139.082 21.7644 140.095C22.1374 141.158 21.8901 142.27 20.9117 143.34C20.4778 143.814 19.9961 144.132 19.4749 144.291C18.953 144.451 18.4209 144.443 17.901 144.31C16.8776 144.05 15.8863 143.306 15.0036 142.362C13.2317 140.465 11.7158 137.564 11.0851 135.199L10.9005 134.507ZM32.426 136.118L32.8903 136.827C34.2505 138.904 35.3768 142.223 35.7297 144.975C35.9054 146.345 35.8983 147.638 35.5889 148.584C35.4327 149.062 35.1871 149.49 34.8105 149.781C34.4222 150.081 33.9424 150.199 33.4022 150.135C32.1228 149.983 31.2894 149.222 30.8097 148.171C30.3417 147.145 30.2001 145.833 30.247 144.479C30.3409 141.768 31.2002 138.688 32.0616 136.882L32.426 136.118ZM39.762 145.57L40.2711 146.066C42.4445 148.183 44.527 151.576 45.4228 154.592C45.8694 156.096 46.0394 157.567 45.7239 158.759C45.5641 159.362 45.2772 159.903 44.8315 160.331C44.3849 160.761 43.8024 161.055 43.0886 161.201C42.3747 161.347 41.7215 161.305 41.1381 161.087C40.556 160.869 40.0733 160.486 39.681 159.997C38.906 159.029 38.4611 157.615 38.2562 156.061C37.8454 152.946 38.3684 149.02 39.4965 146.227L39.762 145.57ZM27.6162 151.981C28.2402 153.035 28.2962 154.227 27.548 155.451C27.1809 156.051 26.7232 156.484 26.1862 156.745C25.6497 157.006 25.0654 157.081 24.4692 157.018C23.2943 156.894 22.0381 156.23 20.8514 155.316C18.4696 153.48 16.1542 150.465 15.0161 147.88L14.7263 147.222L15.4503 147.22C18.3123 147.21 21.9685 148.033 24.5956 149.417C25.9054 150.106 27.0146 150.965 27.6162 151.981ZM51.4654 152.998L51.9935 153.474C54.5227 155.755 57.0643 159.419 58.2302 162.743C58.8117 164.401 59.0721 166.033 58.762 167.387C58.4418 168.784 57.5202 169.844 55.8743 170.296C55.0175 170.531 54.2376 170.55 53.5399 170.362C52.8404 170.174 52.2545 169.787 51.775 169.262C50.8288 168.225 50.2884 166.641 50.0297 164.883C49.5106 161.354 50.0857 156.837 51.2257 153.665L51.4654 152.998ZM61.9457 159.751L62.5621 160.112C65.9395 162.093 69.9587 165.486 72.2097 168.895C73.3324 170.596 74.0561 172.361 73.9729 173.991C73.8873 175.669 72.953 177.11 70.9809 178.122L70.9637 178.131L70.9458 178.139C69.068 178.917 67.432 178.659 66.0947 177.668C64.7915 176.702 63.8137 175.073 63.1119 173.18C61.7056 169.386 61.321 164.294 61.8489 160.455L61.9457 159.751ZM37.2876 163.792C37.4323 164.402 37.3855 165.062 37.1399 165.763C36.5228 167.525 35.4704 168.498 34.1202 168.777C32.8164 169.047 31.3449 168.644 29.9119 167.928C27.0357 166.491 24.0182 163.643 22.1443 161.319L21.6902 160.756L22.3923 160.568C25.34 159.783 29.4051 159.665 32.5303 160.39C34.0878 160.752 35.4767 161.337 36.3651 162.214C36.8154 162.658 37.1431 163.183 37.2876 163.792ZM75.6399 164.317L76.2996 164.597C80.8984 166.553 85.4249 171.101 87.8797 175.448C89.1058 177.619 89.8504 179.8 89.7823 181.627C89.748 182.548 89.5058 183.396 88.9957 184.1C88.4835 184.807 87.7263 185.333 86.7249 185.647C85.1087 186.155 83.5786 185.63 82.2465 184.502C80.9245 183.382 79.7533 181.637 78.7809 179.574C76.8338 175.443 75.6155 169.888 75.6368 165.029L75.6399 164.317ZM50.3848 175.465C50.538 176.166 50.4811 176.936 50.2026 177.767C49.9241 178.599 49.5053 179.25 48.9595 179.724C48.4129 180.199 47.7621 180.475 47.0523 180.591C45.6503 180.82 44.0065 180.426 42.364 179.706C39.0695 178.26 35.5292 175.384 33.402 172.746L32.9479 172.183L33.65 171.996C36.9545 171.115 41.5396 170.867 45.0637 171.626C46.8202 172.005 48.3813 172.648 49.3721 173.651C49.8739 174.159 50.2314 174.763 50.3848 175.465ZM63.6947 182.609C64.0267 183.214 64.1681 183.947 64.1194 184.805C64.0202 186.554 63.1674 187.756 61.8255 188.437C60.5187 189.101 58.7894 189.253 56.924 189.048C53.1859 188.636 48.6685 186.761 45.2483 184.145L44.4874 183.563L45.4152 183.316C45.8372 183.203 46.2715 183.086 46.7152 182.967C50.1818 182.032 54.2246 180.942 57.4963 180.68C59.334 180.533 61.017 180.638 62.2341 181.246C62.8546 181.556 63.3612 182 63.6947 182.609ZM78.9802 190.136C79.6321 190.795 80.0781 191.655 80.2844 192.72C80.4907 193.785 80.3975 194.745 80.0367 195.594C79.677 196.439 79.0644 197.143 78.2787 197.718C76.719 198.859 74.4366 199.524 71.8878 199.818C66.7823 200.407 60.3655 199.534 55.8208 197.667L55.1489 197.391L55.6733 196.891C59.2046 193.523 64.8499 190.41 69.8214 189.128C72.3035 188.488 74.6757 188.289 76.5527 188.792C77.4981 189.045 78.3302 189.48 78.9802 190.136Z" fill="#DFBD74"/>
<path fill-rule="evenodd" clip-rule="evenodd" d="M182.617 120.852L183.148 120.379L183.383 121.048C184.192 123.35 184.543 126.224 184.166 128.425C183.978 129.521 183.599 130.515 182.941 131.171C182.253 131.857 181.313 132.118 180.171 131.831C178.842 131.497 178.008 130.823 177.68 129.866C177.363 128.945 177.559 127.881 177.989 126.843C178.854 124.76 180.799 122.469 182.617 120.852ZM171.962 127.613L172.351 127.021L172.753 127.605C174.29 129.835 175.209 132.321 175.353 134.328C175.425 135.329 175.307 136.254 174.931 136.972C174.544 137.714 173.89 138.212 172.983 138.319C172.051 138.43 171.302 138.034 170.795 137.338C170.304 136.667 170.04 135.725 169.969 134.682C169.828 132.591 170.456 129.907 171.962 127.613ZM188.385 134.612L189.1 134.507L188.915 135.199C188.284 137.564 186.768 140.465 184.996 142.362C184.114 143.306 183.122 144.05 182.099 144.31C181.579 144.443 181.047 144.451 180.525 144.291C180.004 144.132 179.522 143.814 179.088 143.34C178.11 142.27 177.863 141.158 178.236 140.095C178.591 139.082 179.48 138.204 180.56 137.475C182.732 136.01 185.943 134.971 188.385 134.612ZM159.729 146.066L160.238 145.57L160.503 146.227C161.632 149.02 162.155 152.946 161.744 156.061C161.539 157.615 161.094 159.029 160.319 159.997C159.927 160.486 159.444 160.869 158.862 161.087C158.279 161.305 157.625 161.347 156.911 161.201C156.198 161.055 155.615 160.761 155.168 160.331C154.723 159.903 154.436 159.362 154.276 158.759C153.961 157.567 154.131 156.096 154.577 154.592C155.473 151.576 157.555 148.183 159.729 146.066ZM172.452 155.451C171.704 154.227 171.76 153.035 172.384 151.981C172.985 150.965 174.095 150.106 175.404 149.417C178.032 148.033 181.688 147.21 184.55 147.22L185.274 147.222L184.984 147.88C183.846 150.465 181.53 153.48 179.149 155.316C177.962 156.23 176.706 156.894 175.531 157.018C174.935 157.081 174.35 157.006 173.814 156.745C173.277 156.484 172.819 156.051 172.452 155.451ZM148.006 153.474L148.535 152.998L148.774 153.665C149.914 156.837 150.489 161.354 149.97 164.883C149.712 166.641 149.171 168.225 148.225 169.262C147.745 169.787 147.16 170.174 146.46 170.362C145.762 170.55 144.982 170.531 144.126 170.296C142.48 169.844 141.558 168.784 141.238 167.387C140.928 166.033 141.188 164.401 141.77 162.743C142.936 159.419 145.477 155.755 148.006 153.474ZM137.438 160.112L138.054 159.751L138.151 160.455C138.679 164.294 138.294 169.386 136.888 173.18C136.186 175.073 135.208 176.702 133.905 177.668C132.568 178.659 130.932 178.917 129.054 178.139L129.036 178.131L129.019 178.122C127.047 177.11 126.113 175.669 126.027 173.991C125.944 172.361 126.668 170.596 127.79 168.895C130.041 165.486 134.06 162.093 137.438 160.112ZM162.86 165.763C162.614 165.062 162.568 164.402 162.712 163.792C162.857 163.183 163.185 162.658 163.635 162.214C164.523 161.337 165.912 160.752 167.47 160.39C170.595 159.665 174.66 159.783 177.608 160.568L178.31 160.756L177.856 161.319C175.982 163.643 172.964 166.491 170.088 167.928C168.655 168.644 167.184 169.047 165.88 168.777C164.53 168.498 163.477 167.525 162.86 165.763ZM123.7 164.597L124.36 164.317L124.363 165.029C124.385 169.888 123.166 175.443 121.219 179.574C120.247 181.637 119.076 183.382 117.753 184.502C116.421 185.63 114.891 186.155 113.275 185.647C112.274 185.333 111.517 184.807 111.004 184.1C110.494 183.396 110.252 182.548 110.218 181.627C110.15 179.8 110.894 177.619 112.12 175.448C114.575 171.101 119.102 166.553 123.7 164.597ZM149.797 177.767C149.519 176.936 149.462 176.166 149.615 175.465C149.769 174.763 150.126 174.159 150.628 173.651C151.619 172.648 153.18 172.005 154.936 171.626C158.46 170.867 163.046 171.115 166.35 171.996L167.052 172.183L166.598 172.746C164.471 175.384 160.93 178.26 157.636 179.706C155.993 180.426 154.35 180.82 152.948 180.591C152.238 180.475 151.587 180.199 151.04 179.724C150.495 179.25 150.076 178.599 149.797 177.767ZM135.881 184.805C135.832 183.947 135.973 183.214 136.305 182.609C136.639 182 137.145 181.556 137.766 181.246C138.983 180.638 140.666 180.533 142.504 180.68C145.775 180.942 149.818 182.032 153.285 182.967C153.728 183.086 154.163 183.203 154.585 183.316L155.513 183.563L154.752 184.145C151.331 186.761 146.814 188.636 143.076 189.048C141.211 189.253 139.481 189.101 138.174 188.437C136.833 187.756 135.98 186.554 135.881 184.805ZM119.716 192.72C119.922 191.655 120.368 190.795 121.02 190.136C121.67 189.48 122.502 189.045 123.447 188.792C125.324 188.289 127.697 188.488 130.179 189.128C135.15 190.41 140.795 193.523 144.327 196.891L144.851 197.391L144.179 197.667C139.634 199.534 133.218 200.407 128.112 199.818C125.563 199.524 123.281 198.859 121.721 197.718C120.936 197.143 120.323 196.439 119.963 195.594C119.602 194.745 119.509 193.785 119.716 192.72Z" fill="#DFBD74"/>
<path fill-rule="evenodd" clip-rule="evenodd" d="M167.11 136.827L167.574 136.118L167.938 136.882C168.8 138.688 169.659 141.768 169.753 144.479C169.8 145.833 169.658 147.145 169.19 148.171C168.711 149.222 167.877 149.983 166.598 150.135C166.058 150.199 165.578 150.081 165.189 149.781C164.813 149.49 164.567 149.062 164.411 148.584C164.102 147.638 164.095 146.345 164.27 144.975C164.623 142.223 165.749 138.904 167.11 136.827Z" fill="#DFBD74"/>
<path d="M177.767 133.579C178.041 133.319 178.445 133.247 178.793 133.393C179.142 133.539 179.37 133.877 179.374 134.253C179.379 134.806 179.293 135.243 179.195 135.559C179.146 135.716 179.094 135.842 179.05 135.935C179.036 135.966 179.022 135.993 179.01 136.017C167.628 165.994 142.725 181.438 105.886 194.234C108.716 195.087 111.597 195.922 114.526 196.743L117.966 197.708L110.471 199.564C106.964 198.487 103.467 197.382 99.9841 196.23C96.6543 197.327 93.3109 198.382 89.9594 199.411L82.4644 197.555L85.9047 196.591C88.6717 195.815 91.3955 195.027 94.0738 194.223C57.4934 181.459 32.7542 166.019 21.4203 136.17C21.3701 136.073 21.3005 135.92 21.2355 135.711C21.1372 135.396 21.0511 134.959 21.0564 134.406C21.0601 134.03 21.2881 133.692 21.637 133.546C21.9859 133.399 22.3891 133.472 22.6634 133.731C23.0117 134.06 23.2938 134.534 23.4641 134.847C23.5593 135.035 23.7577 135.432 23.7896 135.515C34.9359 164.811 62.5779 180.475 99.9754 192.403C137.616 180.456 165.447 164.784 176.641 135.363C176.701 135.206 176.883 134.852 176.966 134.695C177.137 134.382 177.419 133.908 177.767 133.579Z" fill="#DFBD74"/>
</svg>
