<svg width="932" height="1137" viewBox="0 0 932 1137" fill="none" xmlns="http://www.w3.org/2000/svg">
<path d="M55.1843 4.93898C52.5565 7.58924 47.1131 14.6968 43.0775 20.8406C39.0419 26.8639 27.686 42.4041 17.9255 55.4145L0.187702 78.9055L9.94819 79.7487C32.1908 81.6762 45.7992 83.4832 58.1875 86.1335C119.378 99.3848 177.566 133.838 225.148 185.157C231.436 191.783 239.132 200.818 242.417 205.034L248.329 212.864L241.572 222.863C225.242 247.197 213.886 266.954 201.122 293.336C188.546 319.357 163.676 375.856 155.698 396.817C102.579 535.353 100.702 679.311 150.349 806.283C157.2 823.871 166.867 846.157 182.728 881.213C203.281 926.268 219.235 956.625 235.472 981.2C238.944 986.26 241.666 990.838 241.666 991.32C241.666 991.681 237.349 995.174 232.093 998.909C182.352 1034.09 131.673 1052.16 75.3622 1055.17L59.783 1055.89L55.1843 1060.83C52.7442 1063.48 45.893 1072.75 40.0743 1081.31C34.2555 1089.86 23.8381 1104.2 17.0808 1113.11C10.2297 1122.03 3.56633 1130.94 2.34627 1132.87L0 1136.36L15.0161 1135.52C94.6955 1131.18 169.588 1092.27 233.689 1022.16C239.883 1015.29 246.171 1008.06 247.672 1006.02L250.394 1002.4L260.342 1014.69C282.491 1042.04 310.083 1067.09 339.74 1086.61C346.497 1091.07 352.597 1094.92 353.348 1095.28C354.287 1095.64 350.251 1101.79 340.491 1114.92C332.607 1125.4 326.132 1134.43 326.132 1134.92C326.132 1136.36 373.714 1136.24 392.766 1134.8C401.306 1134.07 414.445 1132.51 421.953 1131.06L435.749 1128.65L451.047 1131.06C470.474 1134.19 496.846 1136 524.72 1136H546.399L550.153 1132.51C552.124 1130.7 557.568 1123.83 562.26 1117.33C566.859 1110.82 578.309 1095.16 587.788 1082.51C597.267 1069.86 605.432 1058.54 605.901 1057.46C606.745 1055.41 605.713 1055.29 589.383 1055.29H571.927L583.001 1044.69C589.102 1038.78 599.331 1028.42 605.713 1021.44C612.095 1014.57 618.289 1007.94 619.509 1006.74L621.762 1004.45L631.804 1016.26C677.415 1069.26 729.221 1104.8 787.878 1123.35C817.065 1132.51 866.149 1139.01 872.625 1134.55C876.848 1131.66 881.916 1125.64 889.893 1113.83C894.398 1107.21 905.66 1091.79 914.858 1079.62C923.961 1067.45 931.469 1056.97 931.469 1056.37C931.469 1055.77 927.528 1055.29 922.835 1055.29C897.495 1055.29 863.521 1048.42 834.334 1037.58C782.81 1018.42 731.473 981.08 694.778 936.025C684.735 923.858 684.266 923.015 685.58 920.606C686.331 919.281 691.023 912.053 695.998 904.463C716.363 873.503 726.405 854.229 751.557 797.85C775.208 745.086 783.185 724.245 794.072 686.9C815.939 612.573 822.978 531.86 814.156 457.652C807.68 402.84 794.072 355.135 767.981 295.263C736.541 223.345 717.208 185.037 696.373 153.474L690.179 144.078L693.745 141.307C709.794 128.658 734.476 114.202 756.531 104.444C789.755 89.7475 820.725 82.399 859.58 79.9897C872.249 79.1464 872.625 79.0259 876.379 75.4119C878.444 73.364 883.793 66.4974 888.11 60.2331C892.521 53.9689 904.159 37.9468 913.919 24.6955L931.845 0.602178L923.398 0.240778C905.754 -0.602488 874.502 4.45711 850.007 12.0465C792.945 29.8756 735.227 69.8705 690.085 122.876L681.732 132.754L672.159 120.828C649.26 92.5182 618.852 65.4132 587.788 45.6567L577.839 39.272L592.386 19.9973L607.027 0.602178L577.558 0.240778C547.056 -0.120622 527.442 1.08404 509.61 4.45711C496.752 6.98691 496.283 6.98691 481.455 4.45711C462.121 1.20451 444.102 -0.000155225 413.882 -0.000155225C388.073 -0.000155225 385.445 0.240778 382.817 2.28871C381.316 3.49338 375.966 10.119 371.086 16.8652C366.3 23.7318 354.568 39.6334 345.089 52.2824C335.61 64.9313 327.445 76.2552 326.976 77.3394C326.132 79.3873 327.164 79.5078 343.494 79.5078H361.044L349.031 91.0726C342.368 97.4573 332.232 107.938 326.319 114.323C320.501 120.707 314.588 127.092 313.18 128.538L310.646 131.188L299.853 118.539C247.954 57.7033 184.792 18.7926 115.906 4.81851C99.9511 1.68638 84.8411 -0.000155225 71.2328 -0.000155225H59.8768L55.1843 4.93898ZM455.176 93.1205C503.228 108.781 548.183 136.729 584.221 173.592C593.7 183.23 610.03 202.504 615.098 209.853L618.101 214.31L610.781 225.031C599.331 241.656 587.6 261.533 577.089 281.892C565.263 304.901 531.946 379.711 522.561 404.165C503.416 454.279 491.966 504.273 486.429 561.374C484.458 581.372 484.833 643.532 486.898 663.771C492.623 718.704 502.665 759.542 523.312 811.945C529.976 829.051 560.477 898.44 570.144 918.558C581.406 942.169 594.733 965.66 606.37 982.405L612.189 990.958L608.247 993.849C574.461 1018.79 540.111 1036.25 506.137 1045.53C497.597 1047.94 496.565 1047.94 490.37 1046.25C438.377 1032.28 387.979 1002.52 349.125 962.889C338.426 951.927 317.685 927.834 315.62 923.738C314.306 921.208 314.494 920.606 320.876 911.33C336.549 888.802 350.251 864.95 363.015 838.206C375.497 812.065 403.934 746.893 410.597 729.425C447.105 632.69 457.053 526.8 439.128 426.452C430.306 377.422 417.73 340.559 384.319 265.629C355.695 201.42 344.902 180.459 325.944 152.872C321.814 146.849 320.782 144.56 321.721 143.717C324.161 141.187 344.057 127.454 353.818 121.551C382.724 104.083 424.675 87.3381 436.876 88.4223C439.691 88.6633 447.95 90.8317 455.176 93.1205ZM267.287 240.09C298.539 288.999 347.06 395.612 362.733 449.702C378.97 505.96 386.102 560.41 384.976 619.801C383.193 709.789 362.827 787.37 314.119 889.284C305.484 907.234 304.921 908.077 303.326 906.27C300.229 902.536 283.054 874.106 274.138 857.722C258.184 828.569 231.53 772.07 218.297 739.544C198.119 689.912 185.168 636.304 179.067 577.637C177.003 557.64 176.721 497.647 178.598 477.65C182.634 435.607 191.268 392.841 202.718 358.388C209.193 338.872 220.362 311.165 233.782 281.289C240.258 266.713 248.423 248.522 251.896 240.813C255.274 233.103 258.371 226.959 258.747 227.32C259.122 227.561 262.97 233.344 267.287 240.09ZM643.629 252.136C673.661 301.648 714.862 391.516 729.69 439.944C767.043 561.615 763.946 688.948 720.774 801.705C714.205 818.691 680.324 896.271 675.163 906.029L673.661 908.8L665.965 896.874C654.328 878.563 641.94 856.276 630.49 832.665C618.008 807.006 596.891 759.783 587.412 736.653C541.238 623.053 534.386 491.263 568.454 373.446C580.843 330.56 605.432 269.363 624.859 232.621L627.674 227.2L631.334 232.621C633.305 235.512 638.842 244.306 643.629 252.136Z" fill="#DFBD74"/>
</svg>
