<svg width="50" height="50" viewBox="0 0 50 50" fill="none" xmlns="http://www.w3.org/2000/svg">
<g clip-path="url(#clip0_56_361)">
<path d="M42.6279 7.26575C40.3331 4.95416 37.6019 3.12152 34.5929 1.87425C31.5839 0.626983 28.357 -0.010058 25.0998 0.000120063C11.4467 0.000120063 0.33418 11.1126 0.33418 24.7751C0.33418 29.1407 1.47793 33.4095 3.64355 37.1595L0.12793 50.0001L13.2623 46.5532C16.8934 48.5312 20.9618 49.5689 25.0967 49.572H25.1061C38.7592 49.572 49.8811 38.4595 49.8811 24.797C49.8894 21.5409 49.2524 18.3154 48.0069 15.3068C46.7614 12.2983 44.9322 9.56637 42.6248 7.26887L42.6279 7.26575ZM25.1061 45.3907C21.4159 45.3914 17.7935 44.3994 14.6186 42.5189L13.8654 42.0689L6.07168 44.1095L8.15293 36.5126L7.66543 35.7314C5.59592 32.4525 4.50228 28.6524 4.5123 24.7751C4.51893 19.3129 6.69236 14.0764 10.5556 10.2149C14.4189 6.35343 19.6563 4.18238 25.1186 4.17825C30.6154 4.17825 35.7936 6.32824 39.6779 10.2126C41.5948 12.1226 43.1142 14.3935 44.1484 16.8941C45.1825 19.3947 45.7109 22.0754 45.7029 24.7814C45.6936 36.147 36.4561 45.3907 25.1061 45.3907ZM36.3967 29.9626C35.7811 29.6501 32.7342 28.1564 32.1686 27.9501C31.6029 27.7439 31.1904 27.6376 30.7717 28.2626C30.3623 28.8782 29.1717 30.2751 28.8092 30.6939C28.4467 31.1032 28.0873 31.1626 27.4717 30.8501C26.8561 30.5376 24.8529 29.8845 22.4904 27.7751C20.6529 26.1345 19.4061 24.1032 19.0436 23.4876C18.6811 22.872 19.0029 22.5314 19.3186 22.2282C19.6029 21.9532 19.9342 21.5064 20.2467 21.1439C20.5592 20.7814 20.6561 20.5282 20.8623 20.1095C21.0686 19.7001 20.9686 19.3376 20.8123 19.0251C20.6561 18.7126 19.4154 15.6657 18.9092 14.4251C18.4123 13.2126 17.8936 13.3814 17.5123 13.3595C17.1498 13.3407 16.7404 13.3407 16.3311 13.3407C15.9217 13.3407 15.2467 13.497 14.6811 14.1126C14.1154 14.7282 12.5123 16.2314 12.5123 19.2782C12.5123 22.3251 14.7279 25.2657 15.0404 25.6845C15.3529 26.0939 19.4061 32.3532 25.6154 35.0314C27.0904 35.6657 28.2436 36.047 29.1404 36.3407C30.6248 36.8095 31.9717 36.7407 33.0373 36.5845C34.2279 36.4095 36.6998 35.0907 37.2186 33.6439C37.7373 32.197 37.7373 30.9595 37.5811 30.7032C37.4342 30.4282 37.0248 30.2751 36.3998 29.9595L36.3967 29.9626Z" fill="#232B4B"/>
</g>
<defs>
<clipPath id="clip0_56_361">
<rect width="50" height="50" fill="white"/>
</clipPath>
</defs>
</svg>
