<svg width="50" height="50" viewBox="0 0 50 50" fill="none" xmlns="http://www.w3.org/2000/svg">
<g clip-path="url(#clip0_56_365)">
<path d="M25 0C18.3696 0 12.0107 2.63392 7.32233 7.32233C2.63392 12.0107 0 18.3696 0 25C0 31.6304 2.63392 37.9893 7.32233 42.6777C12.0107 47.3661 18.3696 50 25 50C31.6304 50 37.9893 47.3661 42.6777 42.6777C47.3661 37.9893 50 31.6304 50 25C50 18.3696 47.3661 12.0107 42.6777 7.32233C37.9893 2.63392 31.6304 0 25 0ZM12.5 12.5H37.5C37.9469 12.5 38.3781 12.5969 38.7781 12.775L25 28.8469L11.2219 12.775C11.6232 12.5926 12.0592 12.4988 12.5 12.5ZM9.375 34.375V15.625L9.38125 15.4281L18.5438 26.1187L9.48125 35.1813C9.40967 34.9185 9.37393 34.6473 9.375 34.375ZM37.5 37.5H12.5C12.225 37.5 11.9531 37.4625 11.6938 37.3937L20.5875 28.5L25.0031 33.65L29.4187 28.5L38.3125 37.3937C38.0498 37.4653 37.7786 37.5011 37.5062 37.5H37.5ZM40.625 34.375C40.625 34.65 40.5875 34.9219 40.5187 35.1813L31.4562 26.1187L40.6188 15.4281L40.625 15.625V34.375Z" fill="#232B4B"/>
</g>
<defs>
<clipPath id="clip0_56_365">
<rect width="50" height="50" fill="white"/>
</clipPath>
</defs>
</svg>
