<svg width="50" height="50" viewBox="0 0 50 50" fill="none" xmlns="http://www.w3.org/2000/svg">
<g clip-path="url(#clip0_56_363)">
<path d="M25 0C11.1906 0 0 11.1906 0 25C0 38.8094 11.1906 50 25 50C38.8094 50 50 38.8094 50 25C50 11.1906 38.8094 0 25 0ZM37.2844 17.1375L33.1813 36.4625C32.8969 37.8406 32.0687 38.1625 30.9156 37.5281L24.6656 32.9094L21.6688 35.8281C21.3188 36.1688 21.0437 36.4531 20.4187 36.4531C19.6094 36.4531 19.7437 36.15 19.4719 35.3781L17.3438 28.3875L11.1625 26.4625C9.825 26.0531 9.81563 25.1344 11.4656 24.4813L35.5469 15.1844C36.6406 14.6875 37.7062 15.4469 37.2844 17.1375Z" fill="#232B4B"/>
</g>
<defs>
<clipPath id="clip0_56_363">
<rect width="50" height="50" fill="white"/>
</clipPath>
</defs>
</svg>
