<svg width="41" height="40" viewBox="0 0 41 40" fill="none" xmlns="http://www.w3.org/2000/svg">
<g id="Icons" clip-path="url(#clip0_704_5185)">
<path id="Vector" d="M20.6665 0C9.619 0 0.666504 8.9525 0.666504 20C0.666504 31.0475 9.619 40 20.6665 40C31.714 40 40.6665 31.0475 40.6665 20C40.6665 8.9525 31.714 0 20.6665 0ZM30.494 13.71L27.2115 29.17C26.984 30.2725 26.3215 30.53 25.399 30.0225L20.399 26.3275L18.0015 28.6625C17.7215 28.935 17.5015 29.1625 17.0015 29.1625C16.354 29.1625 16.4615 28.92 16.244 28.3025L14.5415 22.71L9.5965 21.17C8.5265 20.8425 8.519 20.1075 9.839 19.585L29.104 12.1475C29.979 11.75 30.8315 12.3575 30.494 13.71Z" fill="#1B1C1E"/>
</g>
<defs>
<clipPath id="clip0_704_5185">
<rect width="40" height="40" fill="white" transform="translate(0.666504)"/>
</clipPath>
</defs>
</svg>
