<svg width="41" height="40" viewBox="0 0 41 40" fill="none" xmlns="http://www.w3.org/2000/svg">
<g id="Component 7" clip-path="url(#clip0_704_5186)">
<path id="Vector" d="M36.5835 0H4.0835C2.021 0 0.333496 1.6875 0.333496 3.75V36.25C0.333496 38.3125 2.021 40 4.0835 40H36.5835C38.646 40 40.3335 38.3125 40.3335 36.25V3.75C40.3335 1.6875 38.646 0 36.5835 0ZM32.731 28L29.0735 28.055C29.0735 28.055 28.2835 28.2125 27.2535 27.5C25.886 26.5625 24.596 24.1175 23.5885 24.4375C22.5735 24.7575 22.6035 26.9525 22.6035 26.9525C22.6035 26.9525 22.611 27.4225 22.376 27.67C22.126 27.9425 21.626 27.9975 21.626 27.9975H19.9935C19.9935 27.9975 16.3835 28.2175 13.2035 24.9025C9.7335 21.2925 6.6735 14.13 6.6735 14.13C6.6735 14.13 6.4935 13.66 6.6885 13.435C6.906 13.1775 7.4935 13.1625 7.4935 13.1625L11.4085 13.14C11.4085 13.14 11.776 13.2025 12.041 13.3975C12.261 13.555 12.376 13.8575 12.376 13.8575C12.376 13.8575 13.0085 15.46 13.846 16.905C15.4785 19.725 16.2435 20.3425 16.7985 20.045C17.6035 19.6075 17.361 16.0525 17.361 16.0525C17.361 16.0525 17.376 14.7625 16.956 14.1925C16.6285 13.7475 16.011 13.615 15.746 13.5825C15.526 13.55 15.886 13.0425 16.356 12.81C17.0585 12.465 18.301 12.4425 19.771 12.4575C20.911 12.465 21.2485 12.5425 21.6935 12.645C23.046 12.9725 22.5835 14.23 22.5835 17.2475C22.5835 18.2175 22.411 19.575 23.106 20.02C23.4035 20.215 24.136 20.05 25.9735 16.935C26.841 15.4575 27.496 13.725 27.496 13.725C27.496 13.725 27.636 13.4125 27.856 13.28C28.0835 13.1475 28.3885 13.1875 28.3885 13.1875L32.506 13.165C32.506 13.165 33.741 13.0175 33.9435 13.58C34.1535 14.165 33.4835 15.5325 31.8035 17.775C29.046 21.455 28.7335 21.11 31.031 23.235C33.2185 25.2675 33.671 26.2575 33.751 26.3825C34.641 27.8825 32.736 28 32.736 28H32.731Z" fill="#1B1C1E"/>
</g>
<defs>
<clipPath id="clip0_704_5186">
<rect width="40" height="40" fill="white" transform="translate(0.333496)"/>
</clipPath>
</defs>
</svg>
