<svg width="43" height="43" viewBox="0 0 43 43" fill="none" xmlns="http://www.w3.org/2000/svg">
<path d="M39.6094 42.1875L24.1992 26.7773C23.0273 27.793 21.661 28.584 20.1001 29.1504C18.5392 29.7168 16.8782 30 15.1172 30C10.8921 30 7.31631 28.5352 4.38979 25.6055C1.46326 22.6758 0 19.1406 0 15C0 10.8594 1.46484 7.32422 4.39453 4.39453C7.32422 1.46484 10.8691 0 15.0293 0C19.1895 0 22.7246 1.46484 25.6348 4.39453C28.5449 7.32422 30 10.8623 30 15.0088C30 16.6826 29.7266 18.3008 29.1797 19.8633C28.6328 21.4258 27.8125 22.8906 26.7188 24.2578L42.1875 39.6094L39.6094 42.1875ZM15.0586 26.4844C18.2324 26.4844 20.9302 25.3613 23.1519 23.1152C25.3735 20.8691 26.4844 18.1641 26.4844 15C26.4844 11.8359 25.3735 9.13086 23.1519 6.88477C20.9302 4.63867 18.2324 3.51562 15.0586 3.51562C11.8522 3.51562 9.1268 4.63867 6.8823 6.88477C4.63785 9.13086 3.51562 11.8359 3.51562 15C3.51562 18.1641 4.63785 20.8691 6.8823 23.1152C9.1268 25.3613 11.8522 26.4844 15.0586 26.4844Z" fill="#232B4B"/>
</svg>
