<svg width="40" height="40" viewBox="0 0 40 40" fill="none" xmlns="http://www.w3.org/2000/svg">
<g id="icomoon-free:telegram" clip-path="url(#clip0_56_229)">
<path id="Vector" d="M20 0C8.9525 0 0 8.9525 0 20C0 31.0475 8.9525 40 20 40C31.0475 40 40 31.0475 40 20C40 8.9525 31.0475 0 20 0ZM29.8275 13.71L26.545 29.17C26.3175 30.2725 25.655 30.53 24.7325 30.0225L19.7325 26.3275L17.335 28.6625C17.055 28.935 16.835 29.1625 16.335 29.1625C15.6875 29.1625 15.795 28.92 15.5775 28.3025L13.875 22.71L8.93 21.17C7.86 20.8425 7.8525 20.1075 9.1725 19.585L28.4375 12.1475C29.3125 11.75 30.165 12.3575 29.8275 13.71Z" fill="#1B1C1E"/>
</g>
<defs>
<clipPath id="clip0_56_229">
<rect width="40" height="40" fill="white"/>
</clipPath>
</defs>
</svg>
