<svg width="134" height="134" viewBox="0 0 134 134" fill="none" xmlns="http://www.w3.org/2000/svg">
<path fill-rule="evenodd" clip-rule="evenodd" d="M118.441 17.1469C118.441 15.3932 117.019 13.9716 115.265 13.9716C114.227 13.9716 113.304 14.4704 112.725 15.2417H97.4833C96.7245 15.2417 95.9811 14.9671 95.0869 14.3709C94.3428 13.8748 93.6312 13.2565 92.7802 12.5171C92.5498 12.3169 92.3092 12.1079 92.055 11.8899C89.775 9.93566 86.7797 7.62085 82.2416 7.62085C77.7035 7.62085 74.7083 9.93566 72.4282 11.8899C72.174 12.1079 71.9334 12.3169 71.703 12.5171C70.852 13.2565 70.1404 13.8748 69.3963 14.3709C69.2276 14.4834 69.0643 14.5844 68.9052 14.6743V8.46319C70.4071 7.74971 71.4455 6.21887 71.4455 4.4455C71.4455 1.99032 69.4552 0 67 0C64.5448 0 62.5545 1.99032 62.5545 4.4455C62.5545 6.21887 63.5929 7.74971 65.0948 8.46319V14.6744C64.9357 14.5845 64.7723 14.4834 64.6035 14.3709C63.8594 13.8748 63.1478 13.2565 62.2967 12.5171C62.0664 12.3169 61.8258 12.1079 61.5716 11.8899C59.2915 9.93566 56.2963 7.62085 51.7582 7.62085C47.2201 7.62085 44.2248 9.93566 41.9448 11.8899C41.6913 12.1073 41.4513 12.3158 41.2215 12.5155L41.2202 12.5166L41.2196 12.5171C40.3686 13.2565 39.657 13.8749 38.9129 14.3709C38.0187 14.9671 37.2753 15.2417 36.5165 15.2417H21.2751C20.6958 14.4704 19.7735 13.9716 18.7346 13.9716C16.9809 13.9716 15.5592 15.3932 15.5592 17.1469C15.5592 18.0743 15.9568 18.9088 16.5908 19.4894L0.0892988 54.8662C-0.0272562 55.1161 -0.0298263 55.4042 0.0822522 55.6561C4.02742 64.5236 11.3296 69.0684 18.7346 69.0684C23.7834 69.0684 28.7844 66.9557 32.7062 62.8007V93.3566L67 116.219L101.294 93.3566V62.8007C105.216 66.9557 110.217 69.0684 115.265 69.0684C122.67 69.0684 129.973 64.5236 133.918 55.6561C134.03 55.4042 134.027 55.1161 133.911 54.8662L117.409 19.4894C118.043 18.9088 118.441 18.0743 118.441 17.1469ZM36.5165 19.0521C38.2979 19.0521 39.7773 18.3742 41.0265 17.5414C41.9941 16.8963 42.9441 16.0693 43.8162 15.31L43.8167 15.3096C44.0241 15.1291 44.2269 14.9525 44.4246 14.783C46.5901 12.9269 48.6754 11.4313 51.7582 11.4313C54.841 11.4313 56.9263 12.9269 59.0918 14.783C59.2896 14.9526 59.4927 15.1294 59.7002 15.31C60.5723 16.0693 61.5223 16.8963 62.4899 17.5414C63.2641 18.0575 64.1267 18.5142 65.0948 18.7868V27.3081H32.7062V44.8464L20.8784 19.4894C21.0237 19.3563 21.1566 19.2099 21.2751 19.0521H36.5165ZM92.9733 17.5414C94.2225 18.3742 95.7019 19.0521 97.4833 19.0521H112.725C112.843 19.2099 112.976 19.3563 113.122 19.4894L101.294 44.8464V27.3081H68.9052V18.7868C69.8733 18.5141 70.7358 18.0575 71.5099 17.5414C72.4775 16.8963 73.4275 16.0693 74.2996 15.3101C74.5071 15.1294 74.7102 14.9526 74.908 14.783C77.0735 12.9269 79.1588 11.4313 82.2416 11.4313C85.3244 11.4313 87.4097 12.9269 89.5752 14.783C89.773 14.9526 89.9761 15.1294 90.1836 15.3101C91.0557 16.0693 92.0057 16.8963 92.9733 17.5414ZM116.218 54.3163V21.4427L131.552 54.3163H116.218ZM19.6872 54.3163V21.4427L32.7062 49.3534V54.3163H19.6872ZM17.782 21.4427V54.3163H2.44809L17.782 21.4427ZM67 111.724L98.7533 90.1786L98.6559 29.9466L35.3441 29.946L35.2462 90.8136L67 111.724ZM114.313 54.3163V21.4427L101.294 49.3534V54.3163H114.313Z" fill="#1B1C1E"/>
<path d="M73.3642 48.8521V44.212H75.2559V40.026H78.4313V47.6577C77.1416 48.1734 75.2204 48.5887 73.3642 48.8521Z" fill="#FEFCFD"/>
<path d="M77.5075 48.6499L75.6222 50.6217C74.9424 50.9019 74.1177 51.1344 73.1876 51.3174C70.4954 51.8472 66.984 51.9498 63.7141 51.6407C62.99 51.5723 62.2787 51.4837 61.5917 51.3753C60.3686 51.1824 59.2256 50.9272 58.2264 50.6124L56.376 48.5707C57.6886 48.9552 59.2034 49.2559 60.8216 49.4722C62.7799 49.734 64.8983 49.8733 67.0073 49.8863C69.1691 49.8995 71.3249 49.78 73.292 49.522C74.8371 49.3194 76.2732 49.0305 77.5075 48.6499Z" fill="#FEFCFD"/>
<path d="M63.7355 57.336L63.9904 52.319C67.2102 52.5947 70.6388 52.4821 73.3124 51.956C74.1073 51.7996 74.8408 51.6056 75.4849 51.372V51.7136L75.9122 55.8582C74.0841 56.8495 71.9777 57.1693 69.8691 57.4428C67.8565 57.7038 65.7748 57.5888 63.7355 57.336Z" fill="#FEFCFD"/>
<path d="M63.0904 57.2504C61.1307 56.9689 59.3409 56.4912 57.9658 55.844L58.3695 51.7127V51.3358C59.3211 51.6151 60.3776 51.8426 61.491 52.0182C62.0938 52.1133 62.7139 52.1933 63.3441 52.2581L63.0904 57.2504Z" fill="#FEFCFD"/>
<path d="M59.7145 62.4209C58.8346 62.1489 58.0569 61.8283 57.4164 61.4659L57.8988 56.5287C59.406 57.2017 61.3153 57.6772 63.3545 57.9434C65.3987 58.2103 67.5255 58.3564 69.6063 58.1295L69.8979 63.3197C66.3931 63.6486 62.5582 63.3001 59.7145 62.4209Z" fill="#FEFCFD"/>
<path d="M70.2514 58.049C72.1752 57.7945 74.186 57.4665 75.984 56.5547L76.4911 61.473C75.6396 61.9881 74.5965 62.4001 73.4269 62.7114C72.5257 62.9513 71.5538 63.1302 70.5436 63.2509L70.2514 58.049Z" fill="#FEFCFD"/>
<path d="M59.366 68.463L59.9022 63.1553C62.8798 64.0044 66.7629 64.3076 70.2732 63.9361C71.2963 63.8279 72.2908 63.662 73.2245 63.4344L73.7628 68.8907C71.8359 69.4258 69.636 69.667 67.4108 69.6536C67.278 69.6528 67.145 69.6511 67.0121 69.6485L66.9455 69.6471C66.5397 69.6383 66.1338 69.621 65.7294 69.5957C65.7091 69.5944 65.6889 69.5932 65.6687 69.5919C65.6214 69.5888 65.5741 69.5856 65.5268 69.5823C63.3367 69.4305 61.2027 69.0423 59.366 68.463Z" fill="#FEFCFD"/>
<path d="M73.8597 63.2672C74.8541 62.9853 75.771 62.6263 76.5642 62.1825L77.1085 67.4619C76.3212 67.9638 75.4049 68.3754 74.3959 68.701L73.8597 63.2672Z" fill="#FEFCFD"/>
<path d="M58.7353 68.2525C58.0447 68.0085 57.4059 67.7367 56.8326 67.4402L57.3477 62.1688C57.917 62.4673 58.5649 62.732 59.2698 62.9622L58.7353 68.2525Z" fill="#FEFCFD"/>
<path d="M60.9429 75.1828C59.2156 74.7507 57.6163 74.1674 56.2426 73.4771L56.7647 68.1344C57.4194 68.4567 58.1425 68.7464 58.9156 69.0013C60.8651 69.644 63.147 70.0696 65.4821 70.2315C65.551 70.2363 65.62 70.2409 65.689 70.2452C66.0202 70.2659 66.3525 70.2814 66.685 70.2913V75.9922C64.7107 75.9231 62.7583 75.637 60.9429 75.1828Z" fill="#FEFCFD"/>
<path d="M74.2038 69.4411C75.2911 69.12 76.2994 68.703 77.1825 68.1795L77.7306 73.4962C75.8598 74.6305 73.706 75.3445 71.4466 75.71C70.0984 75.9281 68.7144 76.0218 67.3336 76.0071V70.3038C69.7313 70.3241 72.1214 70.056 74.2038 69.4411Z" fill="#FEFCFD"/>
<path d="M60.5875 81.3082L61.1486 75.9024C63.0078 76.3408 64.9966 76.607 67.002 76.6524C68.41 76.6842 69.8276 76.6072 71.2153 76.404L71.824 81.6036C68.1486 82.1538 64.0314 82.0351 60.5875 81.3082Z" fill="#FEFCFD"/>
<path d="M59.9503 81.1649C58.2759 80.7643 56.7995 80.2162 55.6507 79.5345L56.175 74.1691C57.47 74.7987 58.9402 75.3337 60.5129 75.7444L59.9503 81.1649Z" fill="#FEFCFD"/>
<path d="M71.8563 76.3007C73.9677 75.9288 75.999 75.2532 77.8041 74.2084L78.353 79.5334C76.7812 80.452 74.7315 81.1063 72.4649 81.5L71.8563 76.3007Z" fill="#FEFCFD"/>
<path d="M72.2339 82.1984C74.652 81.8091 76.8887 81.1286 78.6226 80.1287L81.3469 83.4599C72.7156 87.6406 61.2844 87.6406 52.5914 83.2593L55.3755 80.127C56.6749 80.8872 58.3293 81.4725 60.1645 81.8822C63.8419 82.703 68.3036 82.8312 72.2339 82.1984Z" fill="#FEFCFD"/>
<path d="M52.3934 83.8302C61.2844 88.2757 72.7156 88.2757 81.5935 84.1261V88.1116C77.3909 90.2598 72.0513 91.3952 66.8119 91.4343C61.5689 91.4735 56.4543 90.1925 52.4069 87.8989L52.3934 83.8302Z" fill="#FEFCFD"/>
<path d="M37.1515 89.5488L66.9998 108.918L96.8481 88.9137V75.5742H78.5969L79.0095 79.5758L82.2421 83.4599V88.5077L82.0673 88.5989C77.7309 90.8599 72.2135 92.0447 66.8167 92.0851C61.4209 92.1254 56.1161 90.7995 51.9205 88.3696L51.7583 88.2757V87.8155V83.2333L54.9953 79.5725L55.386 75.5742H37.1515V89.5488Z" fill="#1B1C1E"/>
<path d="M55.5822 47.6478V40.026H58.7441V44.212H60.6358V48.7764C58.7773 48.5103 56.9453 48.1316 55.5822 47.6478Z" fill="#FEFCFD"/>
<path d="M66.685 49.2325C64.8102 49.2093 63.0328 49.0852 61.2844 48.8638V44.212H63.2031V40.026H65.0948V44.212H66.685V49.2325Z" fill="#FEFCFD"/>
<path fill-rule="evenodd" clip-rule="evenodd" d="M51.7583 83.2333V87.8155V88.2757L51.9205 88.3696C56.1161 90.7995 61.4209 92.1254 66.8167 92.0851C72.2135 92.0447 77.7309 90.8599 82.0673 88.5989L82.2421 88.5077V83.4599L79.0095 79.5758L78.5969 75.5742L76.1335 51.68V51.0269L79.0799 48.0068V39.3752H74.6073V43.5612L71.459 43.5604V39.3744L68.2701 39.3752V43.5612H65.7434V39.3752H62.5545V43.5612H59.3927V39.3752H54.9337V48.0018L57.7209 51.0219V51.6809L55.386 75.5742L54.9953 79.5725L51.7583 83.2333ZM57.9658 55.844C59.3409 56.4912 61.1307 56.9689 63.0904 57.2504L63.3441 52.2581C62.7139 52.1933 62.0938 52.1133 61.491 52.0182C60.3776 51.8426 59.3211 51.6151 58.3695 51.3358V51.7127L57.9658 55.844ZM63.9904 52.319L63.7355 57.336C65.7748 57.5888 67.8565 57.7038 69.8691 57.4428C71.9777 57.1693 74.0841 56.8495 75.9122 55.8582L75.4849 51.7136V51.372C74.8408 51.6056 74.1073 51.7996 73.3124 51.956C70.6388 52.4821 67.2102 52.5947 63.9904 52.319ZM75.6222 50.6217L77.5075 48.6499C76.2732 49.0305 74.8371 49.3194 73.292 49.522C71.3249 49.78 69.1691 49.8995 67.0073 49.8863C64.8983 49.8733 62.7799 49.734 60.8216 49.4722C59.2034 49.2559 57.6886 48.9552 56.376 48.5707L58.2264 50.6124C59.2256 50.9272 60.3686 51.1824 61.5917 51.3753C62.2787 51.4837 62.99 51.5723 63.7141 51.6407C66.984 51.9498 70.4954 51.8472 73.1876 51.3174C74.1177 51.1344 74.9424 50.9019 75.6222 50.6217ZM55.5822 40.026V47.6478C56.9453 48.1316 58.7773 48.5103 60.6358 48.7764V44.212H58.7441V40.026H55.5822ZM61.2844 48.8638C63.0328 49.0852 64.8102 49.2093 66.685 49.2325V44.212H65.0948V40.026H63.2031V44.212H61.2844V48.8638ZM67.3336 44.212V49.2365C69.258 49.2364 70.9563 49.1547 72.7156 48.9379V44.2373L70.8104 44.2112V40.0252L68.9187 40.026V44.212H67.3336ZM73.3642 44.212V48.8521C75.2204 48.5887 77.1416 48.1734 78.4313 47.6577V40.026H75.2559V44.212H73.3642ZM75.984 56.5547C74.186 57.4665 72.1752 57.7945 70.2514 58.049L70.5436 63.2509C71.5538 63.1302 72.5257 62.9513 73.4269 62.7114C74.5965 62.4001 75.6396 61.9881 76.4911 61.473L75.984 56.5547ZM76.5642 62.1825C75.771 62.6263 74.8541 62.9853 73.8597 63.2672L74.3959 68.701C75.4049 68.3754 76.3212 67.9638 77.1085 67.4619L76.5642 62.1825ZM77.1825 68.1795C76.2994 68.703 75.2911 69.12 74.2038 69.4411C72.1214 70.056 69.7313 70.3241 67.3336 70.3038V76.0071C68.7144 76.0218 70.0984 75.9281 71.4466 75.71C73.706 75.3445 75.8598 74.6305 77.7306 73.4962L77.1825 68.1795ZM77.8041 74.2084C75.999 75.2532 73.9677 75.9288 71.8563 76.3007L72.4649 81.5C74.7315 81.1063 76.7812 80.452 78.353 79.5334L77.8041 74.2084ZM78.6226 80.1287C76.8887 81.1286 74.652 81.8091 72.2339 82.1984C68.3036 82.8312 63.8419 82.703 60.1645 81.8822C58.3293 81.4725 56.6749 80.8872 55.3755 80.127L52.5914 83.2593C61.2844 87.6406 72.7156 87.6406 81.3469 83.4599L78.6226 80.1287ZM81.5935 84.1261C72.7156 88.2757 61.2844 88.2757 52.3934 83.8302L52.4069 87.8989C56.4543 90.1925 61.5689 91.4735 66.8119 91.4343C72.0513 91.3952 77.3909 90.2598 81.5935 88.1116V84.1261ZM55.6507 79.5345C56.7995 80.2162 58.2759 80.7643 59.9503 81.1649L60.5129 75.7444C58.9402 75.3337 57.47 74.7987 56.175 74.1691L55.6507 79.5345ZM56.2426 73.4771C57.6163 74.1674 59.2156 74.7507 60.9429 75.1828C62.7583 75.637 64.7107 75.9231 66.685 75.9922V70.2913C66.3525 70.2814 66.0202 70.2659 65.689 70.2452C65.62 70.2409 65.551 70.2363 65.4821 70.2315C63.147 70.0696 60.8651 69.644 58.9156 69.0013C58.1425 68.7464 57.4194 68.4567 56.7647 68.1344L56.2426 73.4771ZM56.8326 67.4402C57.4059 67.7367 58.0447 68.0085 58.7353 68.2525L59.2698 62.9622C58.5649 62.732 57.917 62.4673 57.3477 62.1688L56.8326 67.4402ZM57.4164 61.4659C58.0569 61.8283 58.8346 62.1489 59.7145 62.4209C62.5582 63.3001 66.3931 63.6486 69.8979 63.3197L69.6063 58.1295C67.5255 58.3564 65.3987 58.2103 63.3545 57.9434C61.3153 57.6772 59.406 57.2017 57.8988 56.5287L57.4164 61.4659ZM59.9022 63.1553L59.366 68.463C61.2027 69.0423 63.3367 69.4305 65.5268 69.5823C65.5741 69.5856 65.6214 69.5888 65.6687 69.5919C65.6889 69.5932 65.7091 69.5944 65.7294 69.5957C66.1338 69.621 66.5397 69.6383 66.9455 69.6471L67.0121 69.6485C67.145 69.6511 67.278 69.6528 67.4108 69.6536C69.636 69.667 71.8359 69.4258 73.7628 68.8907L73.2245 63.4344C72.2908 63.662 71.2963 63.8279 70.2732 63.9361C66.7629 64.3076 62.8798 64.0044 59.9022 63.1553ZM61.1486 75.9024L60.5875 81.3082C64.0314 82.0351 68.1486 82.1538 71.824 81.6036L71.2153 76.404C69.8276 76.6072 68.41 76.6842 67.002 76.6524C64.9966 76.607 63.0078 76.3408 61.1486 75.9024Z" fill="#1B1C1E"/>
<path fill-rule="evenodd" clip-rule="evenodd" d="M57.9658 55.844C59.3409 56.4912 61.1307 56.9689 63.0904 57.2504L63.3441 52.2581C62.7139 52.1933 62.0938 52.1133 61.491 52.0182C60.3776 51.8426 59.3211 51.6151 58.3695 51.3358V51.7127L57.9658 55.844ZM63.9904 52.319L63.7355 57.336C65.7748 57.5888 67.8565 57.7038 69.8691 57.4428C71.9777 57.1693 74.0841 56.8495 75.9122 55.8582L75.4849 51.7136V51.372C74.8408 51.6056 74.1073 51.7996 73.3124 51.956C70.6388 52.4821 67.2102 52.5947 63.9904 52.319ZM75.6222 50.6217L77.5075 48.6499C76.2732 49.0305 74.8371 49.3194 73.292 49.522C71.3249 49.78 69.1691 49.8995 67.0073 49.8863C64.8983 49.8733 62.7799 49.734 60.8216 49.4722C59.2034 49.2559 57.6886 48.9552 56.376 48.5707L58.2264 50.6124C59.2256 50.9272 60.3686 51.1824 61.5917 51.3753C62.2787 51.4837 62.99 51.5723 63.7141 51.6407C66.984 51.9498 70.4954 51.8472 73.1876 51.3174C74.1177 51.1344 74.9424 50.9019 75.6222 50.6217ZM73.3642 44.212V48.8521C75.2204 48.5887 77.1416 48.1734 78.4313 47.6577V40.026H75.2559V44.212H73.3642ZM75.984 56.5547C74.186 57.4665 72.1752 57.7945 70.2514 58.049L70.5436 63.2509C71.5538 63.1302 72.5257 62.9513 73.4269 62.7114C74.5965 62.4001 75.6396 61.9881 76.4911 61.473L75.984 56.5547ZM76.5642 62.1825C75.771 62.6263 74.8541 62.9853 73.8597 63.2672L74.3959 68.701C75.4049 68.3754 76.3212 67.9638 77.1085 67.4619L76.5642 62.1825ZM77.1825 68.1795C76.2994 68.703 75.2911 69.12 74.2038 69.4411C72.1214 70.056 69.7313 70.3241 67.3336 70.3038V76.0071C68.7144 76.0218 70.0984 75.9281 71.4466 75.71C73.706 75.3445 75.8598 74.6305 77.7306 73.4962L77.1825 68.1795ZM77.8041 74.2084C75.999 75.2532 73.9677 75.9288 71.8563 76.3007L72.4649 81.5C74.7315 81.1063 76.7812 80.452 78.353 79.5334L77.8041 74.2084ZM78.6226 80.1287C76.8887 81.1286 74.652 81.8091 72.2339 82.1984C68.3036 82.8312 63.8419 82.703 60.1645 81.8822C58.3293 81.4725 56.6749 80.8872 55.3755 80.127L52.5914 83.2593C61.2844 87.6406 72.7156 87.6406 81.3469 83.4599L78.6226 80.1287ZM81.5935 84.1261C72.7156 88.2757 61.2844 88.2757 52.3934 83.8302L52.4069 87.8989C56.4543 90.1925 61.5689 91.4735 66.8119 91.4343C72.0513 91.3952 77.3909 90.2598 81.5935 88.1116V84.1261ZM55.6507 79.5345C56.7995 80.2162 58.2759 80.7643 59.9503 81.1649L60.5129 75.7444C58.9402 75.3337 57.47 74.7987 56.175 74.1691L55.6507 79.5345ZM56.2426 73.4771C57.6163 74.1674 59.2156 74.7507 60.9429 75.1828C62.7583 75.637 64.7107 75.9231 66.685 75.9922V70.2913C66.3525 70.2814 66.0202 70.2659 65.689 70.2452C65.62 70.2409 65.551 70.2363 65.4821 70.2315C63.147 70.0696 60.8651 69.644 58.9156 69.0013C58.1425 68.7464 57.4194 68.4567 56.7647 68.1344L56.2426 73.4771ZM56.8326 67.4402C57.4059 67.7367 58.0447 68.0085 58.7353 68.2525L59.2698 62.9622C58.5649 62.732 57.917 62.4673 57.3477 62.1688L56.8326 67.4402ZM57.4164 61.4659C58.0569 61.8283 58.8346 62.1489 59.7145 62.4209C62.5582 63.3001 66.3931 63.6486 69.8979 63.3197L69.6063 58.1295C67.5255 58.3564 65.3987 58.2103 63.3545 57.9434C61.3153 57.6772 59.406 57.2017 57.8988 56.5287L57.4164 61.4659ZM59.9022 63.1553L59.366 68.463C61.2027 69.0423 63.3367 69.4305 65.5268 69.5823C65.5741 69.5856 65.6214 69.5888 65.6687 69.5919C65.6889 69.5932 65.7091 69.5944 65.7294 69.5957C66.1338 69.621 66.5397 69.6383 66.9455 69.6471L67.0121 69.6485C67.145 69.6511 67.278 69.6528 67.4108 69.6536C69.636 69.667 71.8359 69.4258 73.7628 68.8907L73.2245 63.4344C72.2908 63.662 71.2963 63.8279 70.2732 63.9361C66.7629 64.3076 62.8798 64.0044 59.9022 63.1553ZM61.1486 75.9024L60.5875 81.3082C64.0314 82.0351 68.1486 82.1538 71.824 81.6036L71.2153 76.404C69.8276 76.6072 68.41 76.6842 67.002 76.6524C64.9966 76.607 63.0078 76.3408 61.1486 75.9024Z" fill="#FEFCFD"/>
<path fill-rule="evenodd" clip-rule="evenodd" d="M67 111.724L98.7533 90.1786L98.6559 29.9466L35.3441 29.946L35.2462 90.8136L67 111.724ZM66.9998 108.918L37.1515 89.5488V75.5742H55.386L57.7209 51.6809V51.0219L54.9337 48.0018V39.3752H59.3927V43.5612H62.5545V39.3752H65.7434V43.5612H68.2701V39.3752L71.459 39.3744V43.5604L74.6073 43.5612V39.3752H79.0799V48.0068L76.1335 51.0269V51.68L78.5969 75.5742H96.8481V88.9137L66.9998 108.918Z" fill="#FEFCFD"/>
<path d="M67.3336 49.2365V44.212H68.9187V40.026L70.8104 40.0252V44.2112L72.7156 44.2373V48.9379C70.9563 49.1547 69.258 49.2364 67.3336 49.2365Z" fill="#FEFCFD"/>
<path fill-rule="evenodd" clip-rule="evenodd" d="M11.2906 80.654L11.6467 80.9707C12.865 82.0544 14.168 83.5894 14.7472 84.985C15.0358 85.6803 15.1665 86.3933 14.9546 87.0102C14.7343 87.6515 14.1761 88.1031 13.2855 88.3267C12.5204 88.5189 11.8907 88.344 11.4292 87.8843C10.9884 87.4451 10.7345 86.7793 10.6088 86.0448C10.3565 84.5701 10.591 82.6443 11.1332 81.102L11.2906 80.654ZM18.5251 85.1042L18.7856 85.501C19.7946 87.0375 20.2153 88.8357 20.1206 90.2372C20.0734 90.9356 19.896 91.5667 19.5675 92.0167C19.2276 92.4825 18.7261 92.7481 18.1016 92.6739C17.494 92.6018 17.0558 92.2683 16.796 91.7715C16.5444 91.2905 16.4652 90.6703 16.5133 89.9996C16.6098 88.6548 17.2259 86.9893 18.2557 85.4951L18.5251 85.1042ZM7.30332 90.1198L7.78172 90.1901C9.41836 90.4304 11.5694 91.1264 13.0245 92.108C13.7483 92.5964 14.344 93.1848 14.5821 93.8634C14.8321 94.5758 14.6664 95.3211 14.0108 96.0377C13.7201 96.3555 13.3974 96.5683 13.0482 96.6751C12.6985 96.782 12.342 96.7766 11.9936 96.688C11.308 96.5136 10.6438 96.0151 10.0524 95.3822C8.86525 94.1118 7.84959 92.1677 7.42705 90.5837L7.30332 90.1198ZM21.7254 91.1989L22.0365 91.6738C22.9479 93.0655 23.7025 95.2894 23.9389 97.1332C24.0566 98.0512 24.0518 98.9172 23.8446 99.5513C23.7399 99.8714 23.5754 100.158 23.3231 100.353C23.0629 100.554 22.7414 100.634 22.3795 100.591C21.5223 100.489 20.9639 99.9786 20.6425 99.2742C20.3289 98.5871 20.2341 97.7079 20.2655 96.8012C20.3284 94.9847 20.9042 92.9212 21.4813 91.7109L21.7254 91.1989ZM26.6405 97.5322L26.9816 97.8644C28.4378 99.2825 29.8331 101.556 30.4332 103.577C30.7325 104.585 30.8464 105.57 30.635 106.368C30.5279 106.773 30.3357 107.135 30.0371 107.422C29.7379 107.71 29.3476 107.907 28.8694 108.005C28.3911 108.102 27.9534 108.074 27.5625 107.928C27.1725 107.782 26.8491 107.526 26.5863 107.198C26.067 106.549 25.769 105.602 25.6317 104.561C25.3564 102.474 25.7068 99.8431 26.4627 97.9724L26.6405 97.5322ZM18.5029 101.827C18.9209 102.533 18.9585 103.332 18.4572 104.152C18.2112 104.554 17.9046 104.844 17.5448 105.019C17.1853 105.194 16.7938 105.244 16.3944 105.202C15.6072 105.119 14.7655 104.674 13.9704 104.062C12.3747 102.832 10.8233 100.812 10.0608 99.0798L9.86661 98.6388L10.3517 98.6372C12.2692 98.6308 14.7189 99.1819 16.479 100.109C17.3566 100.571 18.0998 101.146 18.5029 101.827ZM34.4818 102.508L34.8357 102.828C36.5302 104.356 38.2331 106.811 39.0142 109.038C39.4039 110.148 39.5783 111.242 39.3705 112.149C39.156 113.085 38.5386 113.796 37.4358 114.098C36.8617 114.256 36.3392 114.268 35.8717 114.143C35.4031 114.017 35.0105 113.758 34.6892 113.406C34.0553 112.711 33.6932 111.65 33.5199 110.471C33.1721 108.107 33.5574 105.081 34.3212 102.955L34.4818 102.508ZM41.5036 107.033L41.9166 107.275C44.1795 108.602 46.8724 110.876 48.3805 113.16C49.1327 114.299 49.6176 115.482 49.5618 116.574C49.5045 117.698 48.8785 118.664 47.5572 119.342L47.5457 119.348L47.5337 119.353C46.2756 119.875 45.1794 119.701 44.2834 119.037C43.4103 118.39 42.7552 117.299 42.285 116.031C41.3428 113.489 41.0851 110.077 41.4388 107.505L41.5036 107.033ZM24.9827 109.741C25.0796 110.149 25.0483 110.591 24.8837 111.061C24.4703 112.242 23.7652 112.894 22.8605 113.081C21.987 113.261 21.0011 112.991 20.041 112.512C18.1139 111.549 16.0922 109.641 14.8367 108.084L14.5324 107.706L15.0028 107.581C16.9778 107.054 19.7014 106.975 21.7953 107.461C22.8389 107.704 23.7694 108.096 24.3646 108.683C24.6663 108.981 24.8859 109.333 24.9827 109.741ZM50.6787 110.092L51.1208 110.28C54.2019 111.59 57.2347 114.638 58.8794 117.55C59.7009 119.005 60.1998 120.466 60.1541 121.69C60.1311 122.307 59.9689 122.876 59.6271 123.347C59.2839 123.821 58.7767 124.173 58.1057 124.384C57.0228 124.724 55.9977 124.372 55.1052 123.616C54.2194 122.866 53.4347 121.697 52.7832 120.314C51.4787 117.547 50.6624 113.825 50.6766 110.57L50.6787 110.092ZM33.7578 117.562C33.8604 118.031 33.8223 118.547 33.6357 119.104C33.4492 119.661 33.1685 120.098 32.8029 120.415C32.4366 120.733 32.0006 120.918 31.525 120.996C30.5857 121.149 29.4844 120.886 28.3839 120.403C26.1766 119.434 23.8045 117.507 22.3794 115.74L22.0751 115.362L22.5455 115.237C24.7595 114.647 27.8315 114.481 30.1926 114.99C31.3695 115.243 32.4155 115.674 33.0793 116.346C33.4155 116.687 33.6551 117.091 33.7578 117.562ZM42.6755 122.348C42.8979 122.754 42.9926 123.245 42.96 123.819C42.8936 124.991 42.3222 125.796 41.4231 126.253C40.5475 126.698 39.3889 126.8 38.1391 126.662C35.6346 126.386 32.6079 125.13 30.3163 123.377L29.8066 122.987L30.4282 122.822C30.711 122.746 31.0019 122.668 31.2992 122.588C33.6218 121.961 36.3305 121.231 38.5225 121.056C39.7538 120.957 40.8814 121.027 41.6969 121.435C42.1126 121.642 42.452 121.94 42.6755 122.348ZM52.9167 127.391C53.3535 127.833 53.6523 128.409 53.7906 129.122C53.9288 129.836 53.8663 130.479 53.6246 131.048C53.3836 131.614 52.9731 132.086 52.4467 132.471C51.4017 133.235 49.8725 133.681 48.1648 133.878C44.7441 134.273 40.4449 133.688 37.4 132.437L36.9498 132.252L37.3011 131.917C39.6671 129.661 43.4494 127.575 46.7803 126.716C48.4433 126.287 50.0327 126.154 51.2903 126.491C51.9237 126.66 52.4812 126.951 52.9167 127.391Z" fill="#1B1C1E"/>
<path fill-rule="evenodd" clip-rule="evenodd" d="M122.353 80.9707L122.709 80.654L122.867 81.102C123.409 82.6443 123.644 84.5701 123.391 86.0448C123.265 86.7793 123.012 87.4451 122.571 87.8843C122.109 88.344 121.48 88.5189 120.715 88.3267C119.824 88.1031 119.266 87.6515 119.045 87.0102C118.834 86.3933 118.964 85.6803 119.253 84.985C119.832 83.5894 121.135 82.0544 122.353 80.9707ZM115.214 85.501L115.475 85.1042L115.744 85.4951C116.774 86.9893 117.39 88.6548 117.487 89.9996C117.535 90.6703 117.456 91.2905 117.204 91.7715C116.944 92.2683 116.506 92.6018 115.898 92.6739C115.274 92.7481 114.772 92.4825 114.432 92.0167C114.104 91.5667 113.927 90.9356 113.879 90.2372C113.785 88.8357 114.205 87.0375 115.214 85.501ZM126.218 90.1901L126.697 90.1198L126.573 90.5837C126.15 92.1677 125.135 94.1118 123.948 95.3822C123.356 96.0151 122.692 96.5136 122.006 96.688C121.658 96.7766 121.301 96.782 120.952 96.6751C120.603 96.5683 120.28 96.3555 119.989 96.0377C119.334 95.3211 119.168 94.5758 119.418 93.8634C119.656 93.1848 120.252 92.5964 120.976 92.108C122.431 91.1264 124.582 90.4304 126.218 90.1901ZM107.018 97.8644L107.359 97.5322L107.537 97.9724C108.293 99.8431 108.644 102.474 108.368 104.561C108.231 105.602 107.933 106.549 107.414 107.198C107.151 107.526 106.827 107.782 106.437 107.928C106.047 108.074 105.609 108.102 105.131 108.005C104.652 107.907 104.262 107.71 103.963 107.422C103.664 107.135 103.472 106.773 103.365 106.368C103.154 105.57 103.267 104.585 103.567 103.577C104.167 101.556 105.562 99.2825 107.018 97.8644ZM115.543 104.152C115.042 103.332 115.079 102.533 115.497 101.827C115.9 101.146 116.643 100.571 117.521 100.109C119.281 99.1819 121.731 98.6308 123.648 98.6372L124.133 98.6388L123.939 99.0798C123.177 100.812 121.625 102.832 120.03 104.062C119.234 104.674 118.393 105.119 117.606 105.202C117.206 105.244 116.815 105.194 116.455 105.019C116.095 104.844 115.789 104.554 115.543 104.152ZM99.1643 102.828L99.5182 102.508L99.6788 102.955C100.443 105.081 100.828 108.107 100.48 110.471C100.307 111.65 99.9447 112.711 99.3108 113.406C98.9895 113.758 98.5969 114.017 98.1283 114.143C97.6608 114.268 97.1383 114.256 96.5642 114.098C95.4614 113.796 94.844 113.085 94.6295 112.149C94.4217 111.242 94.5961 110.148 94.9858 109.038C95.7669 106.811 97.4698 104.356 99.1643 102.828ZM92.0834 107.275L92.4964 107.033L92.5612 107.505C92.9149 110.077 92.6572 113.489 91.715 116.031C91.2448 117.299 90.5897 118.39 89.7166 119.037C88.8206 119.701 87.7244 119.875 86.4663 119.353L86.4543 119.348L86.4428 119.342C85.1215 118.664 84.4955 117.698 84.4381 116.574C84.3824 115.482 84.8673 114.299 85.6195 113.16C87.1276 110.876 89.8205 108.602 92.0834 107.275ZM109.116 111.061C108.952 110.591 108.92 110.149 109.017 109.741C109.114 109.333 109.334 108.981 109.635 108.683C110.231 108.096 111.161 107.704 112.205 107.461C114.299 106.975 117.022 107.054 118.997 107.581L119.468 107.706L119.163 108.084C117.908 109.641 115.886 111.549 113.959 112.512C112.999 112.991 112.013 113.261 111.139 113.081C110.235 112.894 109.53 112.242 109.116 111.061ZM82.8792 110.28L83.3213 110.092L83.3233 110.57C83.3376 113.825 82.5213 117.547 81.2168 120.314C80.5653 121.697 79.7806 122.866 78.8948 123.616C78.0023 124.372 76.9771 124.724 75.8943 124.384C75.2233 124.173 74.7161 123.821 74.3729 123.347C74.0311 122.876 73.8688 122.307 73.8458 121.69C73.8002 120.466 74.2991 119.005 75.1206 117.55C76.7653 114.638 79.7981 111.59 82.8792 110.28ZM100.364 119.104C100.178 118.547 100.14 118.031 100.242 117.562C100.345 117.091 100.584 116.687 100.921 116.346C101.585 115.674 102.63 115.243 103.807 114.99C106.168 114.481 109.241 114.647 111.455 115.237L111.925 115.362L111.621 115.74C110.195 117.507 107.823 119.434 105.616 120.403C104.516 120.886 103.414 121.149 102.475 120.996C101.999 120.918 101.563 120.733 101.197 120.415C100.831 120.098 100.551 119.661 100.364 119.104ZM91.04 123.819C91.0074 123.245 91.1021 122.754 91.3245 122.348C91.548 121.94 91.8874 121.642 92.3031 121.435C93.1186 121.027 94.2462 120.957 95.4775 121.056C97.6695 121.231 100.378 121.961 102.701 122.588C102.998 122.668 103.289 122.746 103.572 122.822L104.193 122.987L103.684 123.377C101.392 125.13 98.3654 126.386 95.8609 126.662C94.6111 126.8 93.4525 126.698 92.5769 126.253C91.6778 125.796 91.1064 124.991 91.04 123.819ZM80.2094 129.122C80.3477 128.409 80.6465 127.833 81.0833 127.391C81.5188 126.951 82.0763 126.66 82.7097 126.491C83.9673 126.154 85.5567 126.287 87.2197 126.716C90.5506 127.575 94.3329 129.661 96.6989 131.917L97.0502 132.252L96.6 132.437C93.5551 133.688 89.2559 134.273 85.8352 133.878C84.1275 133.681 82.5982 133.235 81.5532 132.471C81.0269 132.086 80.6164 131.614 80.3754 131.048C80.1337 130.479 80.0712 129.836 80.2094 129.122Z" fill="#1B1C1E"/>
<path fill-rule="evenodd" clip-rule="evenodd" d="M111.964 91.6738L112.275 91.1989L112.519 91.7109C113.096 92.9212 113.672 94.9847 113.735 96.8012C113.766 97.7079 113.671 98.5871 113.357 99.2742C113.036 99.9786 112.478 100.489 111.621 100.591C111.259 100.634 110.937 100.554 110.677 100.353C110.425 100.158 110.26 99.8714 110.155 99.5513C109.948 98.9172 109.943 98.0512 110.061 97.1332C110.298 95.2894 111.052 93.0655 111.964 91.6738Z" fill="#1B1C1E"/>
<path d="M119.104 89.4977C119.288 89.3241 119.558 89.2752 119.792 89.3733C120.025 89.4714 120.178 89.6977 120.181 89.9495C120.184 90.32 120.126 90.613 120.061 90.8244C120.028 90.9297 119.993 91.0139 119.964 91.0767C119.954 91.0973 119.945 91.1155 119.937 91.1315C112.311 111.216 95.6257 121.564 70.9438 130.137C72.8396 130.708 74.7697 131.268 76.7322 131.818L79.0372 132.464L74.0156 133.708C71.6662 132.987 69.3227 132.246 66.9894 131.474C64.7584 132.209 62.5183 132.916 60.2728 133.606L55.2512 132.362L57.5562 131.716C59.41 131.196 61.235 130.668 63.0295 130.13C38.5206 121.578 21.9453 111.233 14.3516 91.2337C14.318 91.169 14.2713 91.0663 14.2278 90.9266C14.1619 90.7153 14.1042 90.4222 14.1078 90.0517C14.1102 89.7999 14.263 89.5736 14.4968 89.4755C14.7306 89.3774 15.0007 89.4263 15.1845 89.5999C15.4178 89.8204 15.6069 90.1379 15.7209 90.3477C15.7847 90.4735 15.9176 90.7392 15.939 90.7952C23.4071 110.423 41.9272 120.918 66.9836 128.91C92.2028 120.905 110.849 110.405 118.349 90.693C118.39 90.5879 118.511 90.3509 118.567 90.2455C118.682 90.0357 118.871 89.7181 119.104 89.4977Z" fill="#1B1C1E"/>
</svg>
