<svg
    class="logo"
    width="422"
    height="82"
    viewBox="0 0 422 82"
    fill="none"
    xmlns="http://www.w3.org/2000/svg"
  >
    <path
      d="M99.0755 53.4266C98.4552 53.4266 98.1451 53.0958 98.1451 52.4341C98.1451 52.2273 98.2278 52.0413 98.3932 51.8758C98.5586 51.7104 98.7861 51.6277 99.0755 51.6277C100.606 51.6277 101.929 51.3589 103.046 50.8213C104.162 50.2837 104.72 49.2705 104.72 47.7818V13.9748C104.72 12.6102 104.307 11.6383 103.48 11.0594C102.694 10.4391 101.226 10.1289 99.0755 10.1289C98.4552 10.1289 98.1451 9.86011 98.1451 9.32251C98.1451 8.7022 98.4552 8.39204 99.0755 8.39204C99.7372 8.39204 100.606 8.41272 101.681 8.45407C102.797 8.49543 103.955 8.53678 105.155 8.57813C106.395 8.57813 107.532 8.57813 108.566 8.57813H131.642C132.717 8.57813 133.854 8.57813 135.054 8.57813C136.294 8.53678 137.452 8.49543 138.527 8.45407C139.644 8.41272 140.533 8.39204 141.195 8.39204C141.815 8.39204 142.125 8.7022 142.125 9.32251C142.125 9.86011 141.815 10.1289 141.195 10.1289C139.21 10.1289 137.783 10.4184 136.915 10.9973C136.046 11.535 135.612 12.5274 135.612 13.9748V47.7818C135.612 49.2705 136.149 50.2837 137.225 50.8213C138.341 51.3589 139.665 51.6277 141.195 51.6277C141.525 51.6277 141.753 51.7104 141.877 51.8758C142.042 52.0413 142.125 52.2273 142.125 52.4341C142.125 53.0958 141.815 53.4266 141.195 53.4266C140.533 53.4266 139.644 53.4059 138.527 53.3646C137.452 53.3232 136.294 53.2819 135.054 53.2405C133.854 53.1992 132.717 53.1785 131.642 53.1785C130.112 53.1785 128.478 53.2198 126.741 53.3026C125.046 53.3853 123.702 53.4266 122.709 53.4266C122.089 53.4266 121.779 53.0958 121.779 52.4341C121.779 52.2273 121.862 52.0413 122.027 51.8758C122.192 51.7104 122.42 51.6277 122.709 51.6277C124.281 51.6277 125.583 51.3382 126.617 50.7593C127.651 50.1803 128.168 49.1878 128.168 47.7818V13.9748C128.168 12.5688 127.713 11.6177 126.803 11.1214C125.894 10.6252 124.322 10.377 122.089 10.377H118.181C117.23 10.377 116.279 10.4391 115.328 10.5631C114.418 10.6458 113.653 10.9353 113.033 11.4316C112.412 11.9278 112.102 12.7756 112.102 13.9748V47.7818C112.102 49.1878 112.619 50.1803 113.653 50.7593C114.728 51.3382 116.031 51.6277 117.561 51.6277C117.85 51.6277 118.078 51.7104 118.243 51.8758C118.409 52.0413 118.491 52.2273 118.491 52.4341C118.491 53.0958 118.181 53.4266 117.561 53.4266C116.568 53.4266 115.204 53.3853 113.467 53.3026C111.771 53.2198 110.138 53.1785 108.566 53.1785C107.532 53.1785 106.395 53.1992 105.155 53.2405C103.955 53.2819 102.797 53.3232 101.681 53.3646C100.606 53.4059 99.7372 53.4266 99.0755 53.4266Z"
      fill="#1B1C1E"
    />
    <path
      d="M146.646 53.4266C146.026 53.4266 145.716 53.1371 145.716 52.5582C145.716 51.9379 146.026 51.6277 146.646 51.6277C148.383 51.6277 149.665 51.5243 150.492 51.3176C151.319 51.1108 151.857 50.7386 152.105 50.201C152.394 49.622 152.539 48.8363 152.539 47.8438V13.8508C152.539 12.941 152.415 12.2173 152.167 11.6797C151.96 11.1421 151.423 10.7699 150.554 10.5631C149.727 10.315 148.383 10.1909 146.522 10.1909C146.315 10.1909 146.129 10.1082 145.964 9.94282C145.798 9.73605 145.716 9.52928 145.716 9.32251C145.716 8.7022 145.984 8.39204 146.522 8.39204C146.894 8.39204 147.928 8.4334 149.624 8.5161C151.319 8.55746 153.552 8.57813 156.323 8.57813C159.755 8.57813 162.691 8.55746 165.131 8.5161C167.613 8.4334 169.598 8.39204 171.086 8.39204C175.801 8.39204 179.461 9.46725 182.066 11.6177C184.671 13.7681 185.974 16.8076 185.974 20.7362C185.974 24.5822 184.878 27.5803 182.686 29.7307C180.536 31.8398 176.979 32.8943 172.017 32.8943H160.107V47.8438C160.107 49.3326 160.562 50.3457 161.472 50.8833C162.381 51.3796 164.201 51.6277 166.93 51.6277C167.468 51.6277 167.737 51.9379 167.737 52.5582C167.737 53.1371 167.468 53.4266 166.93 53.4266C166.517 53.4266 165.359 53.4059 163.457 53.3646C161.596 53.2819 159.218 53.2405 156.323 53.2405C153.552 53.2405 151.34 53.2819 149.686 53.3646C148.073 53.4059 147.06 53.4266 146.646 53.4266ZM160.107 30.8473H168.977C171.665 30.8473 173.754 29.9168 175.242 28.0559C176.731 26.195 177.476 23.7551 177.476 20.7362C177.476 18.8339 177.186 17.0971 176.607 15.5256C176.07 13.9542 175.098 12.6929 173.692 11.7417C172.327 10.7906 170.404 10.315 167.923 10.315H160.107V30.8473Z"
      fill="#1B1C1E"
    />
    <path
      d="M190.197 53.4266C189.659 53.4266 189.39 53.0958 189.39 52.4341C189.39 51.8965 189.659 51.6277 190.197 51.6277C192.513 51.6277 194.063 51.3382 194.849 50.7593C195.676 50.1803 196.09 49.2085 196.09 47.8438V13.8508C196.09 12.6102 195.718 11.6797 194.973 11.0594C194.229 10.4391 192.74 10.1289 190.507 10.1289C189.969 10.1289 189.701 9.81876 189.701 9.19844C189.701 8.66084 189.969 8.39204 190.507 8.39204C190.838 8.39204 192.409 8.41272 195.221 8.45407C198.075 8.49543 202.251 8.5161 207.752 8.5161C212.962 8.5161 216.912 8.49543 219.6 8.45407C222.288 8.41272 223.818 8.39204 224.19 8.39204C225.141 8.39204 225.637 8.86761 225.679 9.81876C225.761 10.1909 225.823 10.8113 225.865 11.6797C225.906 12.5068 225.947 13.3959 225.989 14.347C226.03 15.2982 226.051 16.1459 226.051 16.8903C226.092 17.6347 226.113 18.1102 226.113 18.317C226.113 18.4824 226.071 18.6685 225.989 18.8753C225.906 19.0407 225.72 19.1234 225.43 19.1234C225.141 19.1234 224.914 19.1027 224.748 19.0614C224.624 18.9787 224.5 18.7926 224.376 18.5031C223.88 17.3865 223.239 16.208 222.453 14.9673C221.709 13.6854 220.695 12.5895 219.413 11.6797C218.173 10.7699 216.539 10.315 214.513 10.315H203.596V29.4206H207.565C209.302 29.4206 210.626 29.0484 211.535 28.304C212.445 27.5596 213.107 26.6912 213.52 25.6987C213.975 24.7062 214.348 23.8585 214.637 23.1554C214.761 22.8246 214.864 22.5972 214.947 22.4731C215.071 22.3077 215.299 22.225 215.63 22.225C215.919 22.225 216.105 22.3284 216.188 22.5351C216.312 22.7419 216.374 22.9487 216.374 23.1554C216.374 23.4863 216.353 24.0859 216.312 24.9543C216.312 25.7814 216.291 26.6912 216.25 27.6837C216.25 28.6762 216.25 29.586 216.25 30.4131C216.25 31.1988 216.25 32.1499 216.25 33.2665C216.291 34.3417 216.312 35.3342 216.312 36.244C216.353 37.1124 216.374 37.6914 216.374 37.9809C216.374 38.6012 216.126 38.9113 215.63 38.9113C215.175 38.9113 214.864 38.6425 214.699 38.1049C214.41 37.3192 214.037 36.4094 213.583 35.3756C213.128 34.3004 212.445 33.3699 211.535 32.5842C210.626 31.7571 209.302 31.3435 207.565 31.3435H203.596V50.201C203.596 50.9867 204.009 51.3796 204.836 51.3796H213.21C215.195 51.3796 216.87 51.0281 218.235 50.3251C219.6 49.5807 220.716 48.6709 221.585 47.5957C222.494 46.4791 223.197 45.3832 223.694 44.308C224.19 43.1915 224.562 42.261 224.81 41.5166C224.934 41.1445 225.058 40.9377 225.182 40.8963C225.348 40.855 225.575 40.855 225.865 40.8963C225.906 40.8963 225.927 40.8963 225.927 40.8963C226.258 40.9377 226.444 41.0411 226.485 41.2065C226.526 41.3719 226.547 41.558 226.547 41.7648C226.547 41.9302 226.526 42.4471 226.485 43.3155C226.485 44.184 226.464 45.1972 226.423 46.3551C226.423 47.4716 226.402 48.5262 226.361 49.5187C226.361 50.4698 226.361 51.1315 226.361 51.5037C226.361 52.0413 226.196 52.4961 225.865 52.8683C225.575 53.2405 225.141 53.4266 224.562 53.4266C224.273 53.4266 223.632 53.4059 222.639 53.3646C221.647 53.3232 220.013 53.3026 217.739 53.3026C215.464 53.2612 212.28 53.2405 208.186 53.2405C203.141 53.2405 198.985 53.2819 195.718 53.3646C192.492 53.4059 190.652 53.4266 190.197 53.4266Z"
      fill="#1B1C1E"
    />
    <path
      d="M254.691 54.171C251.796 54.171 249.046 53.6954 246.441 52.7443C243.877 51.7518 241.582 50.2837 239.556 48.3401C237.571 46.3964 235.999 43.9772 234.841 41.0824C233.725 38.1876 233.166 34.8173 233.166 30.9714C233.166 27.2081 233.745 23.8791 234.903 20.9844C236.061 18.0896 237.633 15.6497 239.618 13.6647C241.644 11.6797 243.939 10.1909 246.503 9.19844C249.108 8.16459 251.858 7.64767 254.753 7.64767C256.904 7.64767 258.93 7.81309 260.832 8.14392C262.776 8.4334 264.451 8.7849 265.857 9.19844C267.263 9.57063 268.297 9.88079 268.958 10.1289C269.579 10.3357 269.889 10.7492 269.889 11.3695C269.93 11.7417 269.972 12.3207 270.013 13.1064C270.054 13.8921 270.096 14.7399 270.137 15.6497C270.178 16.5595 270.22 17.3659 270.261 18.0689C270.302 18.7719 270.323 19.2061 270.323 19.3715C270.323 19.537 270.22 19.7231 270.013 19.9298C269.847 20.0952 269.62 20.1779 269.331 20.1779C269.289 20.1779 269.227 20.1779 269.144 20.1779C268.814 20.1779 268.524 20.1573 268.276 20.1159C268.069 20.0332 267.924 19.8264 267.842 19.4956C267.47 17.9655 266.767 16.4561 265.733 14.9673C264.699 13.4786 263.272 12.238 261.453 11.2455C259.674 10.253 257.421 9.75672 254.691 9.75672C252.665 9.75672 250.68 10.5011 248.736 11.9898C246.793 13.4372 245.18 15.7117 243.898 18.8133C242.616 21.9148 241.975 25.9675 241.975 30.9714C241.975 34.8173 242.368 38.0636 243.153 40.7102C243.939 43.3569 244.952 45.5073 246.193 47.1615C247.475 48.8156 248.86 50.0149 250.349 50.7593C251.838 51.5036 253.306 51.8758 254.753 51.8758C256.862 51.8758 258.682 51.545 260.212 50.8833C261.783 50.1803 263.107 49.2912 264.182 48.216C265.257 47.1408 266.126 45.9622 266.787 44.6802C267.449 43.3983 267.966 42.1783 268.338 41.0204C268.421 40.6896 268.607 40.5035 268.896 40.4621C269.186 40.4208 269.475 40.4001 269.765 40.4001C270.096 40.4001 270.344 40.5035 270.509 40.7102C270.716 40.8757 270.819 41.0617 270.819 41.2685C270.819 41.3926 270.799 41.8475 270.757 42.6332C270.757 43.3776 270.737 44.2667 270.695 45.3005C270.654 46.293 270.612 47.2028 270.571 48.0299C270.53 48.857 270.488 49.3739 270.447 49.5807C270.364 50.201 269.951 50.7179 269.206 51.1315C268.669 51.4209 267.759 51.8138 266.477 52.3101C265.236 52.7649 263.624 53.1785 261.639 53.5507C259.695 53.9642 257.379 54.171 254.691 54.171Z"
      fill="#1B1C1E"
    />
    <path
      d="M284.183 53.4266C283.645 53.4266 283.376 53.1371 283.376 52.5582C283.376 51.9379 283.645 51.6277 284.183 51.6277C286.498 51.6277 288.049 51.2969 288.835 50.6352C289.621 49.9735 290.014 49.0431 290.014 47.8438V10.315H284.989C283.418 10.315 282.074 10.6872 280.957 11.4316C279.84 12.1346 278.91 13.0444 278.166 14.1609C277.421 15.2361 276.822 16.3113 276.367 17.3865C275.912 18.4618 275.56 19.3715 275.312 20.1159C275.229 20.364 275.105 20.5088 274.94 20.5501C274.775 20.5915 274.547 20.5915 274.258 20.5501C274.216 20.5501 274.175 20.5501 274.134 20.5501C273.885 20.5088 273.741 20.4261 273.699 20.302C273.658 20.1366 273.637 19.9712 273.637 19.8058C273.637 19.6403 273.658 19.1027 273.699 18.193C273.741 17.2832 273.782 16.2493 273.823 15.0914C273.906 13.9335 273.968 12.8583 274.01 11.8658C274.051 10.8733 274.072 10.1909 274.072 9.81876C274.072 8.86761 274.609 8.39204 275.684 8.39204C275.891 8.39204 276.78 8.41272 278.352 8.45407C279.923 8.49543 282.032 8.53678 284.679 8.57813C287.367 8.57813 290.448 8.57813 293.921 8.57813C297.395 8.57813 300.455 8.57813 303.102 8.57813C305.79 8.53678 307.941 8.49543 309.553 8.45407C311.166 8.41272 312.076 8.39204 312.283 8.39204C313.275 8.39204 313.792 8.88829 313.833 9.88079C313.833 10.1703 313.854 10.8113 313.896 11.8038C313.978 12.7549 314.04 13.8301 314.082 15.0294C314.123 16.1873 314.164 17.2418 314.206 18.193C314.247 19.1027 314.268 19.6403 314.268 19.8058C314.268 20.0539 314.247 20.24 314.206 20.364C314.164 20.4468 313.978 20.5088 313.647 20.5501C313.606 20.5501 313.544 20.5708 313.461 20.6122C313.296 20.6122 313.151 20.6122 313.027 20.6122C312.903 20.5708 312.758 20.3847 312.593 20.0539C312.262 19.3509 311.848 18.4618 311.352 17.3865C310.897 16.3113 310.298 15.2361 309.553 14.1609C308.85 13.0857 307.961 12.1759 306.886 11.4316C305.811 10.6872 304.487 10.315 302.916 10.315H297.457V47.8438C297.457 48.5468 297.561 49.1878 297.767 49.7668C298.016 50.3457 298.532 50.8006 299.318 51.1315C300.145 51.4623 301.407 51.6277 303.102 51.6277C303.722 51.6277 304.033 51.9379 304.033 52.5582C304.033 53.1371 303.722 53.4266 303.102 53.4266C302.689 53.4266 301.655 53.4059 300.001 53.3646C298.388 53.2819 296.299 53.2405 293.735 53.2405C291.171 53.2405 289.042 53.2819 287.346 53.3646C285.692 53.4059 284.638 53.4266 284.183 53.4266Z"
      fill="#1B1C1E"
    />
    <path
      d="M317.94 53.4266C317.361 53.4266 317.071 53.0958 317.071 52.4341C317.071 51.8965 317.361 51.6277 317.94 51.6277C319.677 51.6277 320.958 51.3176 321.786 50.6972C322.613 50.0356 323.026 48.9811 323.026 47.5337V14.1609C323.026 12.879 322.675 11.8865 321.972 11.1834C321.269 10.4804 320.028 10.1289 318.25 10.1289C317.671 10.1289 317.381 9.81876 317.381 9.19844C317.381 8.66084 317.671 8.39204 318.25 8.39204C318.415 8.39204 318.849 8.41272 319.552 8.45407C320.255 8.45407 321.083 8.45407 322.034 8.45407C322.985 8.45407 323.895 8.47475 324.763 8.5161C325.631 8.5161 326.314 8.5161 326.81 8.5161C327.306 8.5161 327.989 8.5161 328.857 8.5161C329.767 8.47475 330.697 8.45407 331.649 8.45407C332.6 8.45407 333.427 8.45407 334.13 8.45407C334.874 8.41272 335.329 8.39204 335.494 8.39204C336.032 8.39204 336.301 8.66084 336.301 9.19844C336.301 9.81876 336.032 10.1289 335.494 10.1289C333.716 10.1289 332.455 10.4804 331.711 11.1834C330.966 11.8865 330.594 12.879 330.594 14.1609V40.9584C336.384 33.4733 340.85 27.5803 343.993 23.2795C347.177 18.9787 349.162 16.3734 349.948 15.4636V14.1609C349.948 12.8376 349.555 11.8451 348.769 11.1834C348.025 10.4804 346.784 10.1289 345.047 10.1289C344.51 10.1289 344.241 9.81876 344.241 9.19844C344.241 8.66084 344.51 8.39204 345.047 8.39204C345.213 8.39204 345.647 8.41272 346.35 8.45407C347.094 8.45407 347.942 8.45407 348.893 8.45407C349.844 8.45407 350.754 8.47475 351.623 8.5161C352.532 8.5161 353.235 8.5161 353.732 8.5161C354.228 8.5161 354.91 8.5161 355.779 8.5161C356.647 8.47475 357.557 8.45407 358.508 8.45407C359.459 8.45407 360.286 8.45407 360.989 8.45407C361.734 8.41272 362.188 8.39204 362.354 8.39204C362.933 8.39204 363.222 8.66084 363.222 9.19844C363.222 9.81876 362.933 10.1289 362.354 10.1289C360.576 10.1289 359.314 10.5011 358.57 11.2455C357.826 11.9485 357.453 12.9203 357.453 14.1609V47.5337C357.453 48.9397 357.867 49.9735 358.694 50.6352C359.521 51.2969 360.844 51.6277 362.664 51.6277C363.202 51.6277 363.47 51.8965 363.47 52.4341C363.47 53.0958 363.202 53.4266 362.664 53.4266C362.457 53.4266 361.961 53.4266 361.175 53.4266C360.431 53.3853 359.562 53.3646 358.57 53.3646C357.619 53.3232 356.688 53.3026 355.779 53.3026C354.91 53.2612 354.228 53.2405 353.732 53.2405C353.235 53.2405 352.532 53.2612 351.623 53.3026C350.713 53.3026 349.762 53.3232 348.769 53.3646C347.818 53.3646 346.97 53.3853 346.226 53.4266C345.481 53.4266 345.006 53.4266 344.799 53.4266C344.51 53.4266 344.303 53.3646 344.179 53.2405C344.055 53.1165 343.993 52.8477 343.993 52.4341C343.993 52.2273 344.055 52.0206 344.179 51.8138C344.303 51.607 344.51 51.5037 344.799 51.5037C346.701 51.5037 348.025 51.2348 348.769 50.6972C349.555 50.1183 349.948 49.0638 349.948 47.5337V19.3095C348.459 21.3359 346.805 23.569 344.985 26.0089C343.166 28.4488 341.346 30.8886 339.526 33.3285C337.707 35.7271 336.011 37.9602 334.44 40.0279C332.91 42.0542 331.628 43.6877 330.594 44.9284V47.5337C330.635 49.2705 331.173 50.3871 332.207 50.8833C333.241 51.3796 334.419 51.6277 335.743 51.6277C336.032 51.6277 336.259 51.7104 336.425 51.8758C336.59 52.0413 336.673 52.2273 336.673 52.4341C336.673 53.0958 336.363 53.4266 335.743 53.4266C335.577 53.4266 335.102 53.4266 334.316 53.4266C333.571 53.3853 332.703 53.3646 331.711 53.3646C330.759 53.3232 329.829 53.3026 328.919 53.3026C328.009 53.2612 327.306 53.2405 326.81 53.2405C326.314 53.2405 325.611 53.2612 324.701 53.3026C323.833 53.3026 322.902 53.3232 321.91 53.3646C320.958 53.3646 320.111 53.3853 319.366 53.4266C318.622 53.4266 318.146 53.4266 317.94 53.4266Z"
      fill="#1B1C1E"
    />
    <path
      d="M366.755 53.4266C366.217 53.4266 365.948 53.1578 365.948 52.6202C365.948 51.9585 366.217 51.6277 366.755 51.6277C368.409 51.6277 369.629 51.2142 370.415 50.3871C371.2 49.5187 371.986 48.0713 372.772 46.0449C373.061 45.2592 373.433 44.1633 373.888 42.7573C374.343 41.3099 374.819 39.7591 375.315 38.1049C375.853 36.4094 376.349 34.7759 376.804 33.2045C377.3 31.5917 377.693 30.227 377.982 29.1104C378.313 27.9525 378.52 27.2495 378.603 27.0014C378.768 26.4224 378.851 25.9262 378.851 25.5126C378.892 25.0577 378.768 24.5615 378.479 24.0239C378.148 23.4036 377.652 22.4938 376.99 21.2945C376.37 20.0952 375.832 18.7306 375.377 17.2005C375.088 16.1253 374.529 15.4843 373.702 15.2775C372.916 15.0294 371.697 14.9673 370.042 15.0914C367.478 15.2155 366.196 14.0369 366.196 11.5556C366.196 10.4804 366.61 9.57063 367.437 8.82626C368.305 8.04053 369.319 7.64767 370.477 7.64767C371.8 7.64767 373.041 8.10256 374.198 9.01235C375.398 9.92214 376.245 11.3489 376.742 13.2925C377.238 15.1948 377.776 17.0557 378.355 18.8753C378.933 20.6535 379.699 22.2663 380.65 23.7137C381.601 25.1198 382.821 26.2156 384.31 27.0014C385.84 27.7871 387.783 28.1179 390.14 27.9939V13.9748C390.14 12.7756 389.934 11.8658 389.52 11.2455C389.107 10.6252 388.093 10.315 386.481 10.315C386.191 10.315 385.964 10.2116 385.798 10.0048C385.674 9.75673 385.612 9.5086 385.612 9.26048C385.612 9.05371 385.674 8.86761 385.798 8.7022C385.964 8.49543 386.191 8.39204 386.481 8.39204C386.687 8.39204 387.246 8.41272 388.155 8.45407C389.107 8.45407 390.14 8.47475 391.257 8.5161C392.374 8.5161 393.242 8.5161 393.862 8.5161C394.524 8.5161 395.413 8.5161 396.53 8.5161C397.646 8.47475 398.68 8.45407 399.631 8.45407C400.624 8.41272 401.223 8.39204 401.43 8.39204C401.72 8.39204 401.947 8.49543 402.112 8.7022C402.278 8.86761 402.361 9.05371 402.361 9.26048C402.361 9.54996 402.278 9.79808 402.112 10.0048C401.947 10.2116 401.72 10.315 401.43 10.315C399.693 10.315 398.618 10.6458 398.204 11.3075C397.832 11.9692 397.646 12.8583 397.646 13.9748V27.9939C400.003 28.1179 401.926 27.7871 403.415 27.0014C404.945 26.2156 406.186 25.0991 407.137 23.6517C408.088 22.2043 408.853 20.5708 409.432 18.7512C410.011 16.9317 410.549 15.0707 411.045 13.1684C411.5 11.3075 412.327 9.92214 413.526 9.01235C414.767 8.10256 416.028 7.64767 417.31 7.64767C418.468 7.64767 419.46 8.04053 420.288 8.82626C421.156 9.57063 421.59 10.4804 421.59 11.5556C421.59 14.0369 420.308 15.2155 417.744 15.0914C416.131 14.9673 414.912 15.0294 414.084 15.2775C413.299 15.4843 412.74 16.1253 412.41 17.2005C411.996 18.6065 411.458 19.9712 410.797 21.2945C410.135 22.5765 409.639 23.4863 409.308 24.0239C409.06 24.4374 408.915 24.8716 408.874 25.3265C408.832 25.7814 408.936 26.3604 409.184 27.0634C409.308 27.4356 409.556 28.2213 409.928 29.4206C410.301 30.6198 410.714 32.0259 411.169 33.6387C411.665 35.2515 412.161 36.9057 412.658 38.6012C413.154 40.2553 413.609 41.7648 414.022 43.1295C414.436 44.4528 414.746 45.4039 414.953 45.9829C415.78 48.1333 416.607 49.622 417.434 50.4491C418.261 51.2348 419.44 51.6277 420.97 51.6277C421.549 51.6277 421.838 51.9585 421.838 52.6202C421.838 52.7856 421.756 52.9717 421.59 53.1785C421.425 53.3439 421.218 53.4266 420.97 53.4266C420.722 53.4266 420.184 53.4059 419.357 53.3646C418.53 53.3232 417.579 53.3026 416.504 53.3026C415.47 53.2612 414.415 53.2405 413.34 53.2405C411.562 53.2405 409.928 53.2819 408.44 53.3646C406.992 53.4059 406.062 53.4266 405.648 53.4266C405.4 53.4266 405.193 53.3439 405.028 53.1785C404.862 52.9717 404.78 52.7856 404.78 52.6202C404.78 51.9585 405.069 51.6277 405.648 51.6277C406.517 51.6277 407.178 51.483 407.633 51.1935C408.129 50.904 408.378 50.5939 408.378 50.263C408.378 50.0976 408.336 49.8081 408.253 49.3946C408.212 48.9397 408.088 48.3814 407.881 47.7198C407.799 47.513 407.592 46.8927 407.261 45.8588C406.972 44.7836 406.599 43.5016 406.144 42.0129C405.731 40.4828 405.276 38.932 404.78 37.3606C404.325 35.7891 403.911 34.4037 403.539 33.2045C403.208 31.9639 402.96 31.1161 402.795 30.6612C402.671 30.2477 402.505 29.9582 402.299 29.7928C402.133 29.6274 401.823 29.6067 401.368 29.7307C401.327 29.7307 401.285 29.7514 401.244 29.7928C400.706 29.9168 400.231 30.0202 399.817 30.1029C399.404 30.1443 398.68 30.1443 397.646 30.1029V47.5337C397.646 48.8983 397.894 49.9322 398.391 50.6352C398.887 51.2969 400.024 51.6277 401.802 51.6277C402.34 51.6277 402.609 51.9585 402.609 52.6202C402.609 53.1578 402.34 53.4266 401.802 53.4266C401.513 53.4266 400.851 53.4059 399.817 53.3646C398.825 53.3232 397.75 53.3026 396.592 53.3026C395.434 53.2612 394.524 53.2405 393.862 53.2405C393.242 53.2405 392.374 53.2612 391.257 53.3026C390.14 53.3026 389.086 53.3232 388.093 53.3646C387.101 53.4059 386.46 53.4266 386.17 53.4266C385.55 53.4266 385.24 53.1578 385.24 52.6202C385.24 51.9585 385.55 51.6277 386.17 51.6277C387.866 51.6277 388.941 51.2969 389.396 50.6352C389.892 49.9735 390.14 48.9397 390.14 47.5337V30.1029C389.231 30.1029 388.445 30.0616 387.783 29.9789C387.122 29.8962 386.687 29.8341 386.481 29.7928C385.943 29.7101 385.591 29.7307 385.426 29.8548C385.302 29.9375 385.137 30.2477 384.93 30.7853C384.806 31.1988 384.558 32.0259 384.185 33.2665C383.855 34.4658 383.462 35.8511 383.007 37.4226C382.552 38.9527 382.097 40.4828 381.642 42.0129C381.229 43.543 380.856 44.8663 380.526 45.9829C380.236 47.0581 380.05 47.6991 379.967 47.9058C379.802 48.4021 379.657 48.8777 379.533 49.3326C379.409 49.7461 379.347 50.0563 379.347 50.263C379.347 50.5939 379.595 50.904 380.091 51.1935C380.588 51.483 381.27 51.6277 382.138 51.6277C382.676 51.6277 382.945 51.9585 382.945 52.6202C382.945 53.1578 382.676 53.4266 382.138 53.4266C381.725 53.4266 380.794 53.4059 379.347 53.3646C377.9 53.2819 376.266 53.2405 374.447 53.2405C372.875 53.2405 371.304 53.2819 369.732 53.3646C368.202 53.4059 367.21 53.4266 366.755 53.4266Z"
      fill="#1B1C1E"
    />
    <path
      d="M100.542 76.376V61.3866H102.072V68.4649L108.911 61.3866H110.868L103.884 68.621L111.441 76.376H109.442L102.072 68.8813V76.376H100.542Z"
      fill="#1B1C1E"
    />
    <path
      d="M122.965 76.6883C121.473 76.6883 120.213 76.3586 119.186 75.6994C118.159 75.0332 117.382 74.1137 116.855 72.9409C116.327 71.7681 116.063 70.4149 116.063 68.8813C116.063 67.3476 116.327 65.9944 116.855 64.8216C117.382 63.6489 118.159 62.7328 119.186 62.0736C120.213 61.4074 121.473 61.0743 122.965 61.0743C124.464 61.0743 125.723 61.4074 126.743 62.0736C127.77 62.7328 128.548 63.6489 129.075 64.8216C129.609 65.9944 129.877 67.3476 129.877 68.8813C129.877 70.4149 129.609 71.7681 129.075 72.9409C128.548 74.1137 127.77 75.0332 126.743 75.6994C125.723 76.3586 124.464 76.6883 122.965 76.6883ZM122.965 75.2206C124.138 75.2206 125.116 74.9534 125.9 74.419C126.684 73.8847 127.271 73.1422 127.659 72.1914C128.055 71.2338 128.253 70.1304 128.253 68.8813C128.253 67.6322 128.055 66.5322 127.659 65.5815C127.271 64.6308 126.684 63.8883 125.9 63.3539C125.116 62.8196 124.138 62.5489 122.965 62.542C121.792 62.542 120.817 62.8092 120.04 63.3435C119.263 63.8779 118.676 64.6239 118.281 65.5815C117.892 66.5322 117.694 67.6322 117.687 68.8813C117.68 70.1304 117.871 71.2303 118.26 72.181C118.655 73.1248 119.245 73.8673 120.029 74.4086C120.814 74.943 121.792 75.2136 122.965 75.2206Z"
      fill="#1B1C1E"
    />
    <path
      d="M135.198 76.376V75.0124C135.58 75.0471 135.895 75.0332 136.145 74.9707C136.395 74.9013 136.596 74.7487 136.749 74.5127C136.909 74.2768 137.047 73.9263 137.165 73.4614C137.283 72.9895 137.401 72.3753 137.519 71.6189C137.651 70.8001 137.762 69.9847 137.852 69.1727C137.949 68.3608 138.033 67.5385 138.102 66.7057C138.178 65.866 138.241 65.0055 138.29 64.1242C138.338 63.2429 138.383 62.3303 138.425 61.3866H147.887V76.376H146.357V62.8543H139.903C139.854 63.569 139.806 64.3012 139.757 65.0506C139.716 65.8001 139.66 66.5669 139.591 67.3511C139.528 68.1353 139.448 68.9437 139.351 69.7765C139.261 70.6023 139.147 71.4558 139.008 72.3372C138.897 73.0034 138.765 73.621 138.612 74.19C138.466 74.7591 138.258 75.2379 137.988 75.6265C137.724 76.0151 137.367 76.2823 136.915 76.428C136.471 76.5738 135.899 76.5564 135.198 76.376Z"
      fill="#1B1C1E"
    />
    <path
      d="M154.439 76.376V75.0124C154.821 75.0471 155.136 75.0332 155.386 74.9707C155.636 74.9013 155.837 74.7487 155.99 74.5127C156.15 74.2768 156.288 73.9263 156.406 73.4614C156.524 72.9895 156.642 72.3753 156.76 71.6189C156.892 70.8001 157.003 69.9847 157.093 69.1727C157.19 68.3608 157.274 67.5385 157.343 66.7057C157.419 65.866 157.482 65.0055 157.53 64.1242C157.579 63.2429 157.624 62.3303 157.666 61.3866H167.128V76.376H165.598V62.8543H159.144C159.095 63.569 159.047 64.3012 158.998 65.0506C158.957 65.8001 158.901 66.5669 158.832 67.3511C158.769 68.1353 158.689 68.9437 158.592 69.7765C158.502 70.6023 158.388 71.4558 158.249 72.3372C158.138 73.0034 158.006 73.621 157.853 74.19C157.707 74.7591 157.499 75.2379 157.229 75.6265C156.965 76.0151 156.608 76.2823 156.156 76.428C155.712 76.5738 155.14 76.5564 154.439 76.376Z"
      fill="#1B1C1E"
    />
    <path
      d="M174.721 76.376V61.3866H184.089V62.8543H176.251V68.0381H182.84V69.5058H176.251V74.9083H184.089V76.376H174.721Z"
      fill="#1B1C1E"
    />
    <path
      d="M191.278 76.376V61.3866H200.647V62.8543H192.808V76.376H191.278Z"
      fill="#1B1C1E"
    />
    <path
      d="M218.338 76.376H216.797V64.0826L208.543 76.376H207.002V61.3866H208.543V73.6696L216.797 61.3866H218.338V76.376Z"
      fill="#1B1C1E"
    />
    <path
      d="M236.15 76.376H234.63V70.6821H229.644L229.113 70.5572C228.002 70.3421 227.149 69.8181 226.552 68.9854C225.955 68.1526 225.657 67.1707 225.657 66.0395C225.657 65.2554 225.799 64.5406 226.084 63.8952C226.368 63.2498 226.781 62.7155 227.322 62.2922C227.871 61.8619 228.533 61.5878 229.311 61.4698C229.505 61.4351 229.692 61.4143 229.873 61.4074C230.053 61.3935 230.216 61.3866 230.362 61.3866H236.15V76.376ZM227.073 76.376H225.313L228.561 69.714L230.029 70.2761L227.073 76.376ZM234.63 69.2248V62.8543H230.404C230.286 62.8543 230.14 62.8612 229.966 62.8751C229.8 62.882 229.637 62.9029 229.477 62.9375C228.964 63.0486 228.54 63.2602 228.207 63.5725C227.881 63.8848 227.638 64.2595 227.479 64.6967C227.319 65.127 227.239 65.5746 227.239 66.0395C227.239 66.5045 227.319 66.9521 227.479 67.3823C227.638 67.8126 227.881 68.1839 228.207 68.4961C228.54 68.8084 228.964 69.0201 229.477 69.1311C229.637 69.1658 229.8 69.1901 229.966 69.204C230.14 69.2178 230.286 69.2248 230.404 69.2248H234.63Z"
      fill="#1B1C1E"
    />
    <path
      d="M260.419 76.376L265.582 61.3866H267.612L272.775 76.376H271.182L266.279 62.2401H266.883L262.011 76.376H260.419ZM262.719 72.7431V71.3066H270.464V72.7431H262.719Z"
      fill="#1B1C1E"
    />
    <path
      d="M279.414 78.8742V74.9083C279.997 74.9083 280.465 74.7625 280.819 74.4711C281.173 74.1727 281.444 73.7771 281.631 73.2844C281.818 72.7917 281.961 72.24 282.058 71.6293C282.155 71.0117 282.238 70.3872 282.308 69.7557C282.405 68.8327 282.481 67.941 282.537 67.0805C282.599 66.22 282.651 65.3282 282.693 64.4053C282.741 63.4823 282.797 62.4726 282.859 61.3761L292.103 61.3866V74.9083H293.175V78.8742H291.655V76.376H280.944V78.8742H279.414ZM282.339 74.9083H290.573V62.8543L284.285 62.8439C284.244 63.6905 284.202 64.5094 284.16 65.3005C284.119 66.0916 284.07 66.8896 284.015 67.6946C283.959 68.4996 283.886 69.3393 283.796 70.2137C283.72 71.0117 283.63 71.7091 283.525 72.3059C283.421 72.9027 283.276 73.4128 283.088 73.8361C282.908 74.2594 282.658 74.6168 282.339 74.9083Z"
      fill="#1B1C1E"
    />
    <path
      d="M300.145 76.376V61.3866H305.933C306.772 61.3866 307.504 61.5601 308.129 61.907C308.754 62.254 309.239 62.7224 309.586 63.3123C309.933 63.8952 310.107 64.5406 310.107 65.2484C310.107 66.0534 309.892 66.7716 309.461 67.4031C309.031 68.0277 308.455 68.4614 307.733 68.7043L307.713 68.1943C308.684 68.4718 309.448 68.9576 310.003 69.6516C310.558 70.3455 310.835 71.1852 310.835 72.1706C310.835 73.0381 310.652 73.7875 310.284 74.419C309.916 75.0436 309.399 75.5259 308.733 75.8659C308.067 76.206 307.293 76.376 306.411 76.376H300.145ZM301.686 74.9083H306.037C306.647 74.9083 307.196 74.8007 307.681 74.5856C308.167 74.3635 308.549 74.0512 308.826 73.6487C309.111 73.2462 309.253 72.7605 309.253 72.1914C309.253 71.6363 309.125 71.1366 308.868 70.6925C308.611 70.2484 308.261 69.8944 307.817 69.6307C307.38 69.3601 306.88 69.2248 306.318 69.2248H301.686V74.9083ZM301.686 67.7779H305.922C306.401 67.7779 306.838 67.6703 307.234 67.4552C307.629 67.2331 307.942 66.9313 308.171 66.5496C308.407 66.1679 308.525 65.7272 308.525 65.2276C308.525 64.5198 308.278 63.9438 307.786 63.4997C307.3 63.0555 306.679 62.8335 305.922 62.8335H301.686V67.7779Z"
      fill="#1B1C1E"
    />
    <path
      d="M323.666 76.6883C322.174 76.6883 320.914 76.3586 319.887 75.6994C318.86 75.0332 318.083 74.1137 317.555 72.9409C317.028 71.7681 316.764 70.4149 316.764 68.8813C316.764 67.3476 317.028 65.9944 317.555 64.8216C318.083 63.6489 318.86 62.7328 319.887 62.0736C320.914 61.4074 322.174 61.0743 323.666 61.0743C325.165 61.0743 326.424 61.4074 327.444 62.0736C328.471 62.7328 329.248 63.6489 329.776 64.8216C330.31 65.9944 330.577 67.3476 330.577 68.8813C330.577 70.4149 330.31 71.7681 329.776 72.9409C329.248 74.1137 328.471 75.0332 327.444 75.6994C326.424 76.3586 325.165 76.6883 323.666 76.6883ZM323.666 75.2206C324.838 75.2206 325.817 74.9534 326.601 74.419C327.385 73.8847 327.972 73.1422 328.36 72.1914C328.756 71.2338 328.954 70.1304 328.954 68.8813C328.954 67.6322 328.756 66.5322 328.36 65.5815C327.972 64.6308 327.385 63.8883 326.601 63.3539C325.817 62.8196 324.838 62.5489 323.666 62.542C322.493 62.542 321.518 62.8092 320.741 63.3435C319.963 63.8779 319.377 64.6239 318.981 65.5815C318.593 66.5322 318.395 67.6322 318.388 68.8813C318.381 70.1304 318.572 71.2303 318.961 72.181C319.356 73.1248 319.946 73.8673 320.73 74.4086C321.514 74.943 322.493 75.2136 323.666 75.2206Z"
      fill="#1B1C1E"
    />
    <path
      d="M337.346 76.376V61.3866H338.876V68.4649L345.715 61.3866H347.672L340.688 68.621L348.245 76.376H346.246L338.876 68.8813V76.376H337.346Z"
      fill="#1B1C1E"
    />
    <path
      d="M353.351 76.376L358.514 61.3866H360.543L365.706 76.376H364.114L359.211 62.2401H359.815L354.943 76.376H353.351ZM355.651 72.7431V71.3066H363.396V72.7431H355.651Z"
      fill="#1B1C1E"
    />
    <path
      d="M375.017 76.376V62.8543H369.781V61.3866H381.783V62.8543H376.547V76.376H375.017Z"
      fill="#1B1C1E"
    />
    <path
      d="M394.205 76.6883C392.713 76.6883 391.454 76.3586 390.426 75.6994C389.399 75.0332 388.622 74.1137 388.095 72.9409C387.567 71.7681 387.304 70.4149 387.304 68.8813C387.304 67.3476 387.567 65.9944 388.095 64.8216C388.622 63.6489 389.399 62.7328 390.426 62.0736C391.454 61.4074 392.713 61.0743 394.205 61.0743C395.704 61.0743 396.964 61.4074 397.984 62.0736C399.011 62.7328 399.788 63.6489 400.315 64.8216C400.85 65.9944 401.117 67.3476 401.117 68.8813C401.117 70.4149 400.85 71.7681 400.315 72.9409C399.788 74.1137 399.011 75.0332 397.984 75.6994C396.964 76.3586 395.704 76.6883 394.205 76.6883ZM394.205 75.2206C395.378 75.2206 396.356 74.9534 397.141 74.419C397.925 73.8847 398.511 73.1422 398.9 72.1914C399.295 71.2338 399.493 70.1304 399.493 68.8813C399.493 67.6322 399.295 66.5322 398.9 65.5815C398.511 64.6308 397.925 63.8883 397.141 63.3539C396.356 62.8196 395.378 62.5489 394.205 62.542C393.032 62.542 392.057 62.8092 391.28 63.3435C390.503 63.8779 389.916 64.6239 389.521 65.5815C389.132 66.5322 388.934 67.6322 388.928 68.8813C388.921 70.1304 389.111 71.2303 389.5 72.181C389.896 73.1248 390.485 73.8673 391.27 74.4086C392.054 74.943 393.032 75.2136 394.205 75.2206Z"
      fill="#1B1C1E"
    />
    <path
      d="M407.886 76.376V61.3866H413.673C414.513 61.3866 415.245 61.5601 415.87 61.907C416.494 62.254 416.98 62.7224 417.327 63.3123C417.674 63.8952 417.847 64.5406 417.847 65.2484C417.847 66.0534 417.632 66.7716 417.202 67.4031C416.772 68.0277 416.196 68.4614 415.474 68.7043L415.453 68.1943C416.425 68.4718 417.188 68.9576 417.743 69.6516C418.298 70.3455 418.576 71.1852 418.576 72.1706C418.576 73.0381 418.392 73.7875 418.024 74.419C417.657 75.0436 417.14 75.5259 416.473 75.8659C415.807 76.206 415.033 76.376 414.152 76.376H407.886ZM409.426 74.9083H413.777C414.388 74.9083 414.936 74.8007 415.422 74.5856C415.908 74.3635 416.289 74.0512 416.567 73.6487C416.852 73.2462 416.994 72.7605 416.994 72.1914C416.994 71.6363 416.865 71.1366 416.609 70.6925C416.352 70.2484 416.002 69.8944 415.557 69.6307C415.12 69.3601 414.621 69.2248 414.058 69.2248H409.426V74.9083ZM409.426 67.7779H413.663C414.142 67.7779 414.579 67.6703 414.974 67.4552C415.37 67.2331 415.682 66.9313 415.911 66.5496C416.147 66.1679 416.265 65.7272 416.265 65.2276C416.265 64.5198 416.019 63.9438 415.526 63.4997C415.04 63.0555 414.419 62.8335 413.663 62.8335H409.426V67.7779Z"
      fill="#1B1C1E"
    />
    <path
      fill-rule="evenodd"
      clip-rule="evenodd"
      d="M72.4787 10.4929C72.4787 9.41973 71.6087 8.54976 70.5355 8.54976C69.8998 8.54976 69.3354 8.85505 68.9809 9.32701H59.654C59.1896 9.32701 58.7347 9.15894 58.1875 8.79415C57.7322 8.49058 57.2967 8.1122 56.7759 7.65971C56.6349 7.53721 56.4877 7.40928 56.3321 7.27594C54.9369 6.08003 53.104 4.66351 50.327 4.66351C47.5499 4.66351 45.717 6.08003 44.3218 7.27594C44.1662 7.40928 44.019 7.53721 43.878 7.65971C43.3572 8.1122 42.9217 8.49058 42.4664 8.79415C42.3632 8.86297 42.2632 8.92478 42.1659 8.97979V5.17897C43.085 4.74236 43.7204 3.80558 43.7204 2.72038C43.7204 1.21796 42.5024 0 41 0C39.4976 0 38.2796 1.21796 38.2796 2.72038C38.2796 3.80558 38.915 4.74236 39.8341 5.17897V8.97986C39.7367 8.92483 39.6368 8.86299 39.5335 8.79415C39.0781 8.49057 38.6427 8.1122 38.1219 7.6597C37.9809 7.53721 37.8337 7.40928 37.6781 7.27594C36.2829 6.08003 34.45 4.66351 31.6729 4.66351C28.8959 4.66351 27.063 6.08003 25.6677 7.27594C25.5126 7.40893 25.3657 7.53654 25.2251 7.65874L25.2239 7.65973C24.7032 8.11221 24.2677 8.49058 23.8124 8.79415C23.2652 9.15894 22.8103 9.32701 22.3459 9.32701H13.0191C12.6646 8.85505 12.1002 8.54976 11.4645 8.54976C10.3913 8.54976 9.52133 9.41973 9.52133 10.4929C9.52133 11.0604 9.76461 11.5711 10.1526 11.9263L0.0546456 33.5748C-0.0166792 33.7277 -0.0182519 33.9041 0.0503334 34.0582C2.46454 39.4846 6.93304 42.2657 11.4645 42.2657C14.554 42.2657 17.6143 40.9729 20.0142 38.4303V57.1287L41 71.1192L61.9858 57.1287V38.4303C64.3857 40.9729 67.446 42.2657 70.5355 42.2657C75.067 42.2657 79.5355 39.4846 81.9497 34.0582C82.0183 33.9041 82.0167 33.7277 81.9454 33.5748L71.8474 11.9263C72.2354 11.5711 72.4787 11.0604 72.4787 10.4929ZM22.3459 11.6588C23.4361 11.6588 24.3414 11.2439 25.1058 10.7343C25.6979 10.3395 26.2792 9.83343 26.8129 9.36883L26.8132 9.36855C26.9401 9.25812 27.0643 9.15003 27.1852 9.04634C28.5104 7.91049 29.7865 6.99526 31.6729 6.99526C33.5594 6.99526 34.8355 7.91049 36.1606 9.04634C36.2817 9.15011 36.406 9.2583 36.5329 9.36883C37.0666 9.83343 37.648 10.3395 38.2401 10.7343C38.7138 11.0501 39.2417 11.3296 39.8341 11.4964V16.7109H20.0142V27.4433L12.7763 11.9263C12.8652 11.8449 12.9466 11.7553 13.0191 11.6588H22.3459ZM56.8941 10.7343C57.6585 11.2439 58.5638 11.6588 59.654 11.6588H68.9809C69.0534 11.7553 69.1347 11.8449 69.2237 11.9263L61.9858 27.4433V16.7109H42.1659V11.4964C42.7583 11.3295 43.2861 11.0501 43.7598 10.7343C44.3519 10.3396 44.9333 9.83344 45.4669 9.36884C45.5939 9.25831 45.7182 9.15012 45.8393 9.04634C47.1644 7.91049 48.4405 6.99526 50.327 6.99526C52.2134 6.99526 53.4895 7.91049 54.8146 9.04634C54.9357 9.15012 55.06 9.25831 55.187 9.36884C55.7206 9.83344 56.302 10.3396 56.8941 10.7343ZM71.1185 33.2383V13.1216L80.5019 33.2383H71.1185ZM12.0474 33.2383V13.1216L20.0142 30.2013V33.2383H12.0474ZM10.8815 13.1216V33.2383H1.49809L10.8815 13.1216ZM41 68.3682L60.4311 55.1839L60.3715 18.3256L21.6285 18.3252L21.5685 55.5725L41 68.3682ZM69.9526 33.2383V13.1216L61.9858 30.2013V33.2383H69.9526Z"
      fill="#1B1C1E"
    />
    <path
      d="M44.8945 29.8945V27.0551H46.0521V24.4935H47.9953V29.1636C47.206 29.4792 46.0304 29.7334 44.8945 29.8945Z"
      fill="#FEFCFD"
    />
    <path
      d="M47.43 29.7709L46.2762 30.9775C45.8603 31.1489 45.3556 31.2912 44.7864 31.4032C43.139 31.7274 40.9902 31.7902 38.9892 31.601C38.5461 31.5591 38.1108 31.5049 37.6905 31.4386C36.942 31.3206 36.2425 31.1644 35.6311 30.9718L34.4988 29.7224C35.302 29.9577 36.2289 30.1417 37.2192 30.274C38.4176 30.4342 39.7139 30.5195 41.0045 30.5274C42.3274 30.5355 43.6466 30.4624 44.8503 30.3045C45.7958 30.1805 46.6747 30.0037 47.43 29.7709Z"
      fill="#FEFCFD"
    />
    <path
      d="M39.0023 35.0862L39.1583 32.0161C41.1286 32.1848 43.2267 32.1159 44.8628 31.794C45.3493 31.6983 45.7981 31.5796 46.1923 31.4366V31.6456L46.4538 34.1819C45.335 34.7885 44.046 34.9842 42.7557 35.1516C41.5241 35.3113 40.2502 35.2409 39.0023 35.0862Z"
      fill="#FEFCFD"
    />
    <path
      d="M38.6076 35.0338C37.4084 34.8616 36.3131 34.5693 35.4716 34.1732L35.7186 31.6451V31.4145C36.301 31.5854 36.9475 31.7246 37.6288 31.832C37.9977 31.8902 38.3772 31.9392 38.7628 31.9788L38.6076 35.0338Z"
      fill="#FEFCFD"
    />
    <path
      d="M36.5417 38.1979C36.0033 38.0314 35.5274 37.8352 35.1354 37.6135L35.4306 34.5922C36.3529 35.004 37.5213 35.295 38.7691 35.4579C40.0201 35.6212 41.3216 35.7107 42.5949 35.5718L42.7733 38.7478C40.6286 38.9491 38.2819 38.7359 36.5417 38.1979Z"
      fill="#FEFCFD"
    />
    <path
      d="M42.9897 35.5225C44.1669 35.3668 45.3974 35.1661 46.4977 34.6081L46.808 37.6178C46.2869 37.933 45.6486 38.1851 44.9329 38.3756C44.3814 38.5224 43.7866 38.6319 43.1685 38.7058L42.9897 35.5225Z"
      fill="#FEFCFD"
    />
    <path
      d="M36.3284 41.8953L36.6566 38.6473C38.4787 39.1669 40.8549 39.3524 43.003 39.1251C43.6291 39.0588 44.2376 38.9573 44.809 38.8181L45.1384 42.157C43.9593 42.4845 42.6131 42.632 41.2514 42.6238C41.1701 42.6234 41.0887 42.6223 41.0074 42.6207L40.9666 42.6199C40.7183 42.6145 40.4699 42.6039 40.2225 42.5884C40.2101 42.5876 40.1977 42.5869 40.1853 42.5861C40.1564 42.5842 40.1274 42.5822 40.0985 42.5802C38.7583 42.4873 37.4524 42.2498 36.3284 41.8953Z"
      fill="#FEFCFD"
    />
    <path
      d="M45.1977 38.7158C45.8062 38.5433 46.3673 38.3235 46.8527 38.052L47.1858 41.2827C46.704 41.5898 46.1433 41.8417 45.5258 42.0409L45.1977 38.7158Z"
      fill="#FEFCFD"
    />
    <path
      d="M35.9425 41.7664C35.5199 41.6171 35.129 41.4508 34.7781 41.2694L35.0934 38.0436C35.4418 38.2262 35.8382 38.3882 36.2696 38.5291L35.9425 41.7664Z"
      fill="#FEFCFD"
    />
    <path
      d="M37.2934 46.0074C36.2364 45.743 35.2577 45.386 34.4171 44.9636L34.7366 41.6942C35.1372 41.8914 35.5797 42.0687 36.0529 42.2247C37.2458 42.618 38.6422 42.8784 40.0712 42.9775C40.1133 42.9804 40.1555 42.9832 40.1977 42.9859C40.4004 42.9986 40.6038 43.008 40.8073 43.0141V46.5027C39.5991 46.4604 38.4043 46.2853 37.2934 46.0074Z"
      fill="#FEFCFD"
    />
    <path
      d="M45.4083 42.4938C46.0736 42.2973 46.6906 42.0421 47.2311 41.7218L47.5665 44.9753C46.4217 45.6694 45.1037 46.1063 43.7211 46.33C42.896 46.4635 42.0491 46.5208 41.2041 46.5118V43.0217C42.6714 43.0342 44.134 42.8701 45.4083 42.4938Z"
      fill="#FEFCFD"
    />
    <path
      d="M37.076 49.7558L37.4193 46.4477C38.557 46.716 39.774 46.8789 41.0012 46.9067C41.8628 46.9262 42.7303 46.8791 43.5795 46.7547L43.952 49.9365C41.7029 50.2732 39.1834 50.2006 37.076 49.7558Z"
      fill="#FEFCFD"
    />
    <path
      d="M36.686 49.6681C35.6614 49.4229 34.7579 49.0875 34.0549 48.6704L34.3758 45.387C35.1682 45.7724 36.0679 46.0997 37.0303 46.3511L36.686 49.6681Z"
      fill="#FEFCFD"
    />
    <path
      d="M43.9718 46.6915C45.2638 46.4639 46.5069 46.0504 47.6114 45.4111L47.9474 48.6697C46.9855 49.2318 45.7312 49.6322 44.3442 49.8731L43.9718 46.6915Z"
      fill="#FEFCFD"
    />
    <path
      d="M44.2028 50.3005C45.6825 50.0623 47.0513 49.6459 48.1124 49.034L49.7795 51.0725C44.4976 53.6308 37.5024 53.6308 32.1828 50.9497L33.8865 49.0329C34.6816 49.4981 35.6941 49.8563 36.8171 50.107C39.0674 50.6093 41.7977 50.6877 44.2028 50.3005Z"
      fill="#FEFCFD"
    />
    <path
      d="M32.0616 51.2991C37.5024 54.0194 44.4976 54.0194 49.9304 51.4801V53.9191C47.3586 55.2336 44.0911 55.9284 40.8849 55.9523C37.6765 55.9763 34.5467 55.1924 32.0699 53.7889L32.0616 51.2991Z"
      fill="#FEFCFD"
    />
    <path
      d="M22.7345 54.7985L40.9999 66.6516L59.2653 54.4099V46.2469H48.0966L48.3491 48.6957L50.3273 51.0725V54.1615L50.2203 54.2172C47.5667 55.6008 44.1904 56.3259 40.8878 56.3506C37.5859 56.3752 34.3397 55.5638 31.7722 54.0769L31.673 54.0194V53.7378V50.9338L33.6538 48.6936L33.8929 46.2469H22.7345V54.7985Z"
      fill="#1B1C1E"
    />
    <path
      d="M34.013 29.1576V24.4935H35.9479V27.0551H37.1055V29.8482C35.9682 29.6854 34.8471 29.4537 34.013 29.1576Z"
      fill="#FEFCFD"
    />
    <path
      d="M40.8073 30.1273C39.66 30.1131 38.5723 30.0372 37.5024 29.9017V27.0551H38.6765V24.4935H39.8341V27.0551H40.8073V30.1273Z"
      fill="#FEFCFD"
    />
    <path
      fill-rule="evenodd"
      clip-rule="evenodd"
      d="M31.673 50.9338V53.7378V54.0194L31.7722 54.0769C34.3397 55.5638 37.5859 56.3752 40.8878 56.3506C44.1904 56.3259 47.5667 55.6008 50.2203 54.2172L50.3273 54.1615V51.0725L48.3491 48.6957L48.0966 46.2469L46.5892 31.6251V31.2254L48.3922 29.3773V24.0953H45.6552V26.6569L43.7286 26.6564V24.0948L41.7773 24.0953V26.6569H40.231V24.0953H38.2796V26.6569H36.3448V24.0953H33.6161V29.3742L35.3217 31.2224V31.6256L33.8929 46.2469L33.6538 48.6936L31.673 50.9338ZM35.4716 34.1732C36.3131 34.5693 37.4084 34.8616 38.6076 35.0338L38.7628 31.9788C38.3772 31.9392 37.9977 31.8902 37.6288 31.832C36.9475 31.7246 36.301 31.5854 35.7186 31.4145V31.6451L35.4716 34.1732ZM39.1583 32.0161L39.0023 35.0862C40.2502 35.2409 41.5241 35.3113 42.7557 35.1516C44.046 34.9842 45.335 34.7885 46.4538 34.1819L46.1923 31.6456V31.4366C45.7981 31.5796 45.3493 31.6983 44.8628 31.794C43.2267 32.1159 41.1286 32.1848 39.1583 32.0161ZM46.2762 30.9775L47.43 29.7709C46.6747 30.0037 45.7958 30.1805 44.8503 30.3045C43.6466 30.4624 42.3274 30.5355 41.0045 30.5274C39.7139 30.5195 38.4176 30.4342 37.2192 30.274C36.2289 30.1417 35.302 29.9577 34.4988 29.7224L35.6311 30.9718C36.2425 31.1644 36.942 31.3206 37.6905 31.4386C38.1108 31.5049 38.5461 31.5591 38.9892 31.601C40.9902 31.7902 43.139 31.7274 44.7864 31.4032C45.3556 31.2912 45.8603 31.1489 46.2762 30.9775ZM34.013 24.4935V29.1576C34.8471 29.4537 35.9682 29.6854 37.1055 29.8482V27.0551H35.9479V24.4935H34.013ZM37.5024 29.9017C38.5723 30.0372 39.66 30.1131 40.8073 30.1273V27.0551H39.8341V24.4935H38.6765V27.0551H37.5024V29.9017ZM41.2041 27.0551V30.1298C42.3818 30.1297 43.421 30.0797 44.4976 29.9471V27.0706L43.3317 27.0546V24.493L42.1741 24.4935V27.0551H41.2041ZM44.8945 27.0551V29.8945C46.0304 29.7334 47.206 29.4792 47.9953 29.1636V24.4935H46.0521V27.0551H44.8945ZM46.4977 34.6081C45.3974 35.1661 44.1669 35.3668 42.9897 35.5225L43.1685 38.7058C43.7866 38.6319 44.3814 38.5224 44.9329 38.3756C45.6486 38.1851 46.2869 37.933 46.808 37.6178L46.4977 34.6081ZM46.8527 38.052C46.3673 38.3235 45.8062 38.5433 45.1977 38.7158L45.5258 42.0409C46.1433 41.8417 46.704 41.5898 47.1858 41.2827L46.8527 38.052ZM47.2311 41.7218C46.6906 42.0421 46.0736 42.2973 45.4083 42.4938C44.134 42.8701 42.6714 43.0342 41.2041 43.0217V46.5118C42.0491 46.5208 42.896 46.4635 43.7211 46.33C45.1037 46.1063 46.4217 45.6694 47.5665 44.9753L47.2311 41.7218ZM47.6114 45.4111C46.5069 46.0504 45.2638 46.4639 43.9718 46.6915L44.3442 49.8731C45.7312 49.6322 46.9855 49.2318 47.9474 48.6697L47.6114 45.4111ZM48.1124 49.034C47.0513 49.6459 45.6825 50.0623 44.2028 50.3005C41.7977 50.6877 39.0674 50.6093 36.8171 50.107C35.6941 49.8563 34.6816 49.4981 33.8865 49.0329L32.1828 50.9497C37.5024 53.6308 44.4976 53.6308 49.7795 51.0725L48.1124 49.034ZM49.9304 51.4801C44.4976 54.0194 37.5024 54.0194 32.0616 51.2991L32.0699 53.7889C34.5467 55.1924 37.6765 55.9763 40.8849 55.9523C44.0911 55.9284 47.3586 55.2336 49.9304 53.9191V51.4801ZM34.0549 48.6704C34.7579 49.0875 35.6614 49.4229 36.686 49.6681L37.0303 46.3511C36.0679 46.0997 35.1682 45.7724 34.3758 45.387L34.0549 48.6704ZM34.4171 44.9636C35.2577 45.386 36.2364 45.743 37.2934 46.0074C38.4043 46.2853 39.5991 46.4604 40.8073 46.5027V43.0141C40.6038 43.008 40.4004 42.9986 40.1977 42.9859C40.1555 42.9832 40.1133 42.9804 40.0712 42.9775C38.6422 42.8784 37.2458 42.618 36.0529 42.2247C35.5797 42.0687 35.1372 41.8914 34.7366 41.6942L34.4171 44.9636ZM34.7781 41.2694C35.129 41.4508 35.5199 41.6171 35.9425 41.7664L36.2696 38.5291C35.8382 38.3882 35.4418 38.2262 35.0934 38.0436L34.7781 41.2694ZM35.1354 37.6135C35.5274 37.8352 36.0033 38.0314 36.5417 38.1979C38.2819 38.7359 40.6286 38.9491 42.7733 38.7478L42.5949 35.5718C41.3216 35.7107 40.0201 35.6212 38.7691 35.4579C37.5213 35.295 36.3529 35.004 35.4306 34.5922L35.1354 37.6135ZM36.6566 38.6473L36.3284 41.8953C37.4524 42.2498 38.7583 42.4873 40.0985 42.5802C40.1274 42.5822 40.1564 42.5842 40.1853 42.5861C40.1977 42.5869 40.2101 42.5876 40.2225 42.5884C40.4699 42.6039 40.7183 42.6145 40.9666 42.6199L41.0074 42.6207C41.0887 42.6223 41.1701 42.6234 41.2514 42.6238C42.6131 42.632 43.9593 42.4845 45.1384 42.157L44.809 38.8181C44.2376 38.9573 43.6291 39.0588 43.003 39.1251C40.8549 39.3524 38.4787 39.1669 36.6566 38.6473ZM37.4193 46.4477L37.076 49.7558C39.1834 50.2006 41.7029 50.2732 43.952 49.9365L43.5795 46.7547C42.7303 46.8791 41.8628 46.9262 41.0012 46.9067C39.774 46.8789 38.557 46.716 37.4193 46.4477Z"
      fill="#1B1C1E"
    />
    <path
      fill-rule="evenodd"
      clip-rule="evenodd"
      d="M35.4716 34.1732C36.3131 34.5693 37.4084 34.8616 38.6076 35.0338L38.7628 31.9788C38.3772 31.9392 37.9977 31.8902 37.6288 31.832C36.9475 31.7246 36.301 31.5854 35.7186 31.4145V31.6451L35.4716 34.1732ZM39.1583 32.0161L39.0023 35.0862C40.2502 35.2409 41.5241 35.3113 42.7557 35.1516C44.046 34.9842 45.335 34.7885 46.4538 34.1819L46.1923 31.6456V31.4366C45.7981 31.5796 45.3493 31.6983 44.8628 31.794C43.2267 32.1159 41.1286 32.1848 39.1583 32.0161ZM46.2762 30.9775L47.43 29.7709C46.6747 30.0037 45.7958 30.1805 44.8503 30.3045C43.6466 30.4624 42.3274 30.5355 41.0045 30.5274C39.7139 30.5195 38.4176 30.4342 37.2192 30.274C36.2289 30.1417 35.302 29.9577 34.4988 29.7224L35.6311 30.9718C36.2425 31.1644 36.942 31.3206 37.6905 31.4386C38.1108 31.5049 38.5461 31.5591 38.9892 31.601C40.9902 31.7902 43.139 31.7274 44.7864 31.4032C45.3556 31.2912 45.8603 31.1489 46.2762 30.9775ZM44.8945 27.0551V29.8945C46.0304 29.7334 47.206 29.4792 47.9953 29.1636V24.4935H46.0521V27.0551H44.8945ZM46.4977 34.6081C45.3974 35.1661 44.1669 35.3668 42.9897 35.5225L43.1685 38.7058C43.7866 38.6319 44.3814 38.5224 44.9329 38.3756C45.6486 38.1851 46.2869 37.933 46.808 37.6178L46.4977 34.6081ZM46.8527 38.052C46.3673 38.3235 45.8062 38.5433 45.1977 38.7158L45.5258 42.0409C46.1433 41.8417 46.704 41.5898 47.1858 41.2827L46.8527 38.052ZM47.2311 41.7218C46.6906 42.0421 46.0736 42.2973 45.4083 42.4938C44.134 42.8701 42.6714 43.0342 41.2041 43.0217V46.5118C42.0491 46.5208 42.896 46.4635 43.7211 46.33C45.1037 46.1063 46.4217 45.6694 47.5665 44.9753L47.2311 41.7218ZM47.6114 45.4111C46.5069 46.0504 45.2638 46.4639 43.9718 46.6915L44.3442 49.8731C45.7312 49.6322 46.9855 49.2318 47.9474 48.6697L47.6114 45.4111ZM48.1124 49.034C47.0513 49.6459 45.6825 50.0623 44.2028 50.3005C41.7977 50.6877 39.0674 50.6093 36.8171 50.107C35.6941 49.8563 34.6816 49.4981 33.8865 49.0329L32.1828 50.9497C37.5024 53.6308 44.4976 53.6308 49.7795 51.0725L48.1124 49.034ZM49.9304 51.4801C44.4976 54.0194 37.5024 54.0194 32.0616 51.2991L32.0699 53.7889C34.5467 55.1924 37.6765 55.9763 40.8849 55.9523C44.0911 55.9284 47.3586 55.2336 49.9304 53.9191V51.4801ZM34.0549 48.6704C34.7579 49.0875 35.6614 49.4229 36.686 49.6681L37.0303 46.3511C36.0679 46.0997 35.1682 45.7724 34.3758 45.387L34.0549 48.6704ZM34.4171 44.9636C35.2577 45.386 36.2364 45.743 37.2934 46.0074C38.4043 46.2853 39.5991 46.4604 40.8073 46.5027V43.0141C40.6038 43.008 40.4004 42.9986 40.1977 42.9859C40.1555 42.9832 40.1133 42.9804 40.0712 42.9775C38.6422 42.8784 37.2458 42.618 36.0529 42.2247C35.5797 42.0687 35.1372 41.8914 34.7366 41.6942L34.4171 44.9636ZM34.7781 41.2694C35.129 41.4508 35.5199 41.6171 35.9425 41.7664L36.2696 38.5291C35.8382 38.3882 35.4418 38.2262 35.0934 38.0436L34.7781 41.2694ZM35.1354 37.6135C35.5274 37.8352 36.0033 38.0314 36.5417 38.1979C38.2819 38.7359 40.6286 38.9491 42.7733 38.7478L42.5949 35.5718C41.3216 35.7107 40.0201 35.6212 38.7691 35.4579C37.5213 35.295 36.3529 35.004 35.4306 34.5922L35.1354 37.6135ZM36.6566 38.6473L36.3284 41.8953C37.4524 42.2498 38.7583 42.4873 40.0985 42.5802C40.1274 42.5822 40.1564 42.5842 40.1853 42.5861C40.1977 42.5869 40.2101 42.5876 40.2225 42.5884C40.4699 42.6039 40.7183 42.6145 40.9666 42.6199L41.0074 42.6207C41.0887 42.6223 41.1701 42.6234 41.2514 42.6238C42.6131 42.632 43.9593 42.4845 45.1384 42.157L44.809 38.8181C44.2376 38.9573 43.6291 39.0588 43.003 39.1251C40.8549 39.3524 38.4787 39.1669 36.6566 38.6473ZM37.4193 46.4477L37.076 49.7558C39.1834 50.2006 41.7029 50.2732 43.952 49.9365L43.5795 46.7547C42.7303 46.8791 41.8628 46.9262 41.0012 46.9067C39.774 46.8789 38.557 46.716 37.4193 46.4477Z"
      fill="#FEFCFD"
    />
    <path
      fill-rule="evenodd"
      clip-rule="evenodd"
      d="M41 68.3682L60.4311 55.1839L60.3715 18.3256L21.6285 18.3252L21.5685 55.5725L41 68.3682ZM40.9999 66.6516L22.7345 54.7985V46.2469H33.8929L35.3217 31.6256V31.2224L33.6161 29.3742V24.0953H36.3448V26.6569H38.2796V24.0953H40.231V26.6569H41.7773V24.0953L43.7286 24.0948V26.6564L45.6552 26.6569V24.0953H48.3922V29.3773L46.5892 31.2254V31.6251L48.0966 46.2469H59.2653V54.4099L40.9999 66.6516Z"
      fill="#FEFCFD"
    />
    <path
      d="M41.2041 30.1298V27.0551H42.1741V24.4935L43.3317 24.493V27.0546L44.4976 27.0706V29.9471C43.421 30.0797 42.3818 30.1297 41.2041 30.1298Z"
      fill="#FEFCFD"
    />
    <path
      fill-rule="evenodd"
      clip-rule="evenodd"
      d="M6.9092 49.3555L7.12709 49.5493C7.87259 50.2124 8.67 51.1517 9.02444 52.0058C9.20101 52.4312 9.28096 52.8675 9.15131 53.2451C9.01654 53.6375 8.67495 53.9138 8.12992 54.0507C7.66176 54.1683 7.27641 54.0613 6.99401 53.7799C6.72422 53.5112 6.5689 53.1038 6.49198 52.6543C6.33755 51.7519 6.48107 50.5734 6.81283 49.6296L6.9092 49.3555ZM11.3362 52.0787L11.4957 52.3215C12.1131 53.2618 12.3705 54.3622 12.3126 55.2198C12.2837 55.6472 12.1752 56.0333 11.9742 56.3087C11.7661 56.5938 11.4593 56.7563 11.0771 56.7109C10.7053 56.6667 10.4372 56.4627 10.2782 56.1587C10.1242 55.8643 10.0757 55.4848 10.1052 55.0744C10.1642 54.2515 10.5412 53.2322 11.1714 52.3179L11.3362 52.0787ZM4.46919 55.1479L4.76195 55.1909C5.76348 55.338 7.07978 55.7639 7.9702 56.3646C8.41316 56.6635 8.77767 57.0235 8.92339 57.4388C9.07635 57.8747 8.97493 58.3308 8.57379 58.7693C8.39589 58.9638 8.19839 59.094 7.98469 59.1594C7.77075 59.2248 7.55256 59.2215 7.33939 59.1673C6.91982 59.0606 6.51338 58.7555 6.15149 58.3682C5.425 57.5908 4.80348 56.4011 4.54491 55.4318L4.46919 55.1479ZM13.2947 55.8083L13.485 56.0989C14.0427 56.9505 14.5045 58.3114 14.6492 59.4397C14.7212 60.0015 14.7183 60.5314 14.5915 60.9195C14.5274 61.1153 14.4267 61.2907 14.2723 61.4102C14.1131 61.5333 13.9164 61.5818 13.6949 61.5555C13.1704 61.4932 12.8287 61.1809 12.632 60.7499C12.4401 60.3294 12.382 59.7914 12.4013 59.2365C12.4398 58.1249 12.7921 56.8622 13.1453 56.1216L13.2947 55.8083ZM16.3024 59.6839L16.5111 59.8872C17.4023 60.755 18.2561 62.1461 18.6233 63.3828C18.8065 63.9995 18.8761 64.6024 18.7468 65.091C18.6813 65.3384 18.5636 65.5601 18.3809 65.7359C18.1978 65.912 17.959 66.0326 17.6663 66.0924C17.3736 66.1522 17.1058 66.1351 16.8666 66.0455C16.628 65.9562 16.43 65.7995 16.2692 65.5987C15.9514 65.2019 15.7691 64.6223 15.6851 63.9852C15.5166 62.7078 15.731 61.098 16.1936 59.9532L16.3024 59.6839ZM11.3227 62.3121C11.5785 62.7442 11.6014 63.2333 11.2947 63.7349C11.1442 63.9811 10.9565 64.1583 10.7364 64.2654C10.5164 64.3725 10.2768 64.4033 10.0324 64.3775C9.55068 64.3265 9.03563 64.0545 8.54908 63.6795C7.57255 62.9268 6.6232 61.6907 6.15661 60.6309L6.03778 60.361L6.33464 60.3601C7.50803 60.3562 9.00707 60.6934 10.0842 61.2608C10.6212 61.5437 11.076 61.8955 11.3227 62.3121ZM21.1008 62.7291L21.3173 62.9243C22.3543 63.8594 23.3964 65.3619 23.8744 66.7245C24.1128 67.4042 24.2196 68.0734 24.0924 68.6285C23.9612 69.2015 23.5833 69.6361 22.9085 69.8213C22.5572 69.9178 22.2374 69.9253 21.9513 69.8484C21.6646 69.7714 21.4244 69.6129 21.2277 69.3974C20.8398 68.9723 20.6182 68.3229 20.5122 67.6019C20.2994 66.1551 20.5352 64.3033 21.0025 63.0025L21.1008 62.7291ZM25.3977 65.4979L25.6505 65.6461C27.0352 66.458 28.6831 67.8493 29.606 69.2471C30.0663 69.9443 30.363 70.6681 30.3289 71.3364C30.2938 72.0242 29.9108 72.615 29.1022 73.0302L29.0951 73.0338L29.0878 73.0368C28.3179 73.3561 27.6471 73.2502 27.0988 72.8438C26.5645 72.4479 26.1636 71.7801 25.8759 71.0038C25.2993 69.4484 25.1416 67.3605 25.3581 65.7865L25.3977 65.4979ZM15.2879 67.1547C15.3472 67.4046 15.3281 67.6754 15.2274 67.9629C14.9743 68.6853 14.5429 69.0842 13.9893 69.1987C13.4547 69.3092 12.8514 69.144 12.2639 68.8504C11.0846 68.2612 9.84745 67.0936 9.07917 66.1407L8.89297 65.9098L9.18083 65.8331C10.3894 65.5109 12.0561 65.4626 13.3374 65.76C13.976 65.9083 14.5454 66.1483 14.9097 66.5076C15.0943 66.6897 15.2287 66.905 15.2879 67.1547ZM31.0124 67.37L31.2829 67.485C33.1683 68.2866 35.0242 70.1515 36.0307 71.9336C36.5334 72.8237 36.8387 73.7181 36.8107 74.4669C36.7967 74.8446 36.6974 75.1925 36.4882 75.4812C36.2782 75.7709 35.9678 75.9865 35.5572 76.1154C34.8946 76.3234 34.2672 76.1083 33.7211 75.6456C33.179 75.1865 32.6988 74.4711 32.3002 73.6252C31.5019 71.9314 31.0023 69.6542 31.0111 67.6619L31.0124 67.37ZM20.6578 71.9407C20.7206 72.2282 20.6972 72.5436 20.5831 72.8846C20.4689 73.2256 20.2972 73.4926 20.0734 73.6869C19.8493 73.8815 19.5824 73.9948 19.2914 74.0423C18.7166 74.1361 18.0427 73.9748 17.3693 73.6793C16.0185 73.0864 14.567 71.9075 13.6948 70.8259L13.5086 70.5949L13.7965 70.5182C15.1513 70.157 17.0312 70.0556 18.4761 70.3668C19.1963 70.522 19.8363 70.7855 20.2426 71.1969C20.4483 71.4053 20.5949 71.6527 20.6578 71.9407ZM26.1148 74.8695C26.251 75.1178 26.3089 75.4183 26.289 75.7701C26.2483 76.4872 25.8987 76.9798 25.3485 77.2593C24.8127 77.5315 24.1037 77.5939 23.3388 77.5096C21.8062 77.3406 19.9541 76.5722 18.5518 75.4996L18.2398 75.2609L18.6202 75.1595C18.7933 75.1134 18.9713 75.0654 19.1533 75.0163C20.5745 74.633 22.2321 74.1861 23.5735 74.0787C24.3269 74.0185 25.017 74.0614 25.516 74.3108C25.7704 74.4379 25.9781 74.6201 26.1148 74.8695ZM32.3819 77.9559C32.6492 78.2261 32.832 78.5786 32.9166 79.0152C33.0012 79.4518 32.963 79.8456 32.8151 80.1934C32.6676 80.5401 32.4164 80.8286 32.0943 81.0642C31.4548 81.5321 30.519 81.8048 29.474 81.9254C27.3807 82.1669 24.7498 81.809 22.8865 81.0434L22.611 80.9302L22.826 80.7252C24.2739 79.3445 26.5884 78.0683 28.6268 77.5427C29.6444 77.2803 30.617 77.1987 31.3866 77.4047C31.7742 77.5084 32.1154 77.6866 32.3819 77.9559Z"
      fill="#DFBD74"
    />
    <path
      fill-rule="evenodd"
      clip-rule="evenodd"
      d="M74.8729 49.5493L75.0908 49.3555L75.1872 49.6296C75.5189 50.5734 75.6624 51.7519 75.508 52.6543C75.4311 53.1038 75.2758 53.5112 75.006 53.7799C74.7236 54.0613 74.3382 54.1683 73.8701 54.0507C73.3251 53.9138 72.9835 53.6375 72.8487 53.2451C72.719 52.8675 72.799 52.4312 72.9756 52.0058C73.33 51.1517 74.1274 50.2124 74.8729 49.5493ZM70.5043 52.3215L70.6637 52.0787L70.8286 52.3179C71.4588 53.2322 71.8358 54.2515 71.8948 55.0744C71.9243 55.4848 71.8758 55.8643 71.7218 56.1587C71.5628 56.4627 71.2947 56.6667 70.9229 56.7109C70.5407 56.7563 70.2339 56.5938 70.0258 56.3087C69.8248 56.0333 69.7163 55.6472 69.6874 55.2198C69.6295 54.3622 69.8869 53.2618 70.5043 52.3215ZM77.238 55.1909L77.5308 55.1479L77.4551 55.4318C77.1965 56.4011 76.575 57.5908 75.8485 58.3682C75.4866 58.7555 75.0802 59.0606 74.6606 59.1673C74.4474 59.2215 74.2293 59.2248 74.0153 59.1594C73.8016 59.094 73.6041 58.9638 73.4262 58.7693C73.0251 58.3308 72.9237 57.8747 73.0766 57.4388C73.2223 57.0235 73.5868 56.6635 74.0298 56.3646C74.9202 55.7639 76.2365 55.338 77.238 55.1909ZM65.4888 59.8872L65.6976 59.6839L65.8064 59.9532C66.269 61.098 66.4834 62.7078 66.3149 63.9852C66.2309 64.6223 66.0486 65.2019 65.7308 65.5987C65.57 65.7995 65.372 65.9562 65.1334 66.0455C64.8942 66.1351 64.6264 66.1522 64.3337 66.0924C64.041 66.0326 63.8022 65.912 63.6191 65.7359C63.4363 65.5601 63.3187 65.3384 63.2532 65.091C63.1238 64.6024 63.1935 63.9995 63.3767 63.3828C63.7439 62.1461 64.5977 60.755 65.4888 59.8872ZM70.7053 63.7349C70.3985 63.2333 70.4215 62.7442 70.6773 62.3121C70.924 61.8955 71.3788 61.5437 71.9158 61.2608C72.9929 60.6934 74.492 60.3562 75.6654 60.3601L75.9622 60.361L75.8434 60.6309C75.3768 61.6907 74.4274 62.9268 73.4509 63.6795C72.9644 64.0545 72.4493 64.3265 71.9676 64.3775C71.7232 64.4033 71.4836 64.3725 71.2636 64.2654C71.0435 64.1583 70.8558 63.9811 70.7053 63.7349ZM60.6826 62.9243L60.8992 62.7291L60.9974 63.0025C61.4648 64.3033 61.7006 66.1551 61.4878 67.6019C61.3818 68.3229 61.1602 68.9723 60.7722 69.3974C60.5756 69.6129 60.3354 69.7714 60.0487 69.8484C59.7626 69.9253 59.4428 69.9178 59.0915 69.8213C58.4167 69.6361 58.0388 69.2015 57.9076 68.6285C57.7804 68.0734 57.8872 67.4042 58.1256 66.7245C58.6036 65.3619 59.6457 63.8594 60.6826 62.9243ZM56.3495 65.6461L56.6022 65.4979L56.6419 65.7865C56.8584 67.3605 56.7007 69.4484 56.1241 71.0038C55.8364 71.7801 55.4355 72.4479 54.9012 72.8438C54.3529 73.2502 53.6821 73.3561 52.9122 73.0368L52.9049 73.0338L52.8978 73.0302C52.0893 72.615 51.7062 72.0242 51.6711 71.3364C51.637 70.6681 51.9337 69.9443 52.394 69.2471C53.3169 67.8493 54.9648 66.458 56.3495 65.6461ZM66.7726 67.9629C66.6719 67.6754 66.6528 67.4046 66.7121 67.1547C66.7713 66.905 66.9057 66.6897 67.0903 66.5076C67.4546 66.1483 68.024 65.9083 68.6626 65.76C69.9439 65.4626 71.6106 65.5109 72.8192 65.8331L73.107 65.9098L72.9208 66.1407C72.1525 67.0936 70.9154 68.2612 69.7361 68.8504C69.1486 69.144 68.5453 69.3092 68.0107 69.1987C67.4571 69.0842 67.0257 68.6853 66.7726 67.9629ZM50.7171 67.485L50.9876 67.37L50.9889 67.6619C50.9977 69.6542 50.4981 71.9314 49.6998 73.6252C49.3012 74.4711 48.821 75.1865 48.2789 75.6456C47.7328 76.1083 47.1054 76.3234 46.4428 76.1154C46.0322 75.9865 45.7218 75.7709 45.5118 75.4812C45.3026 75.1925 45.2033 74.8446 45.1892 74.4669C45.1613 73.7181 45.4666 72.8237 45.9693 71.9336C46.9758 70.1515 48.8317 68.2866 50.7171 67.485ZM61.4169 72.8846C61.3028 72.5436 61.2794 72.2282 61.3422 71.9407C61.4051 71.6527 61.5517 71.4053 61.7574 71.1969C62.1637 70.7855 62.8037 70.522 63.5239 70.3668C64.9688 70.0556 66.8487 70.157 68.2035 70.5182L68.4914 70.5949L68.3052 70.8259C67.433 71.9075 65.9815 73.0864 64.6307 73.6793C63.9573 73.9748 63.2834 74.1361 62.7085 74.0423C62.4176 73.9948 62.1507 73.8815 61.9266 73.6869C61.7028 73.4926 61.5311 73.2256 61.4169 72.8846ZM55.711 75.7701C55.6911 75.4183 55.749 75.1178 55.8852 74.8695C56.0219 74.6201 56.2296 74.4379 56.484 74.3108C56.9831 74.0614 57.6731 74.0185 58.4265 74.0787C59.7679 74.1861 61.4255 74.633 62.8467 75.0163C63.0287 75.0654 63.2067 75.1134 63.3798 75.1595L63.7602 75.2609L63.4482 75.4996C62.0459 76.5722 60.1938 77.3406 58.6612 77.5096C57.8963 77.5939 57.1873 77.5315 56.6515 77.2593C56.1013 76.9798 55.7517 76.4872 55.711 75.7701ZM49.0834 79.0152C49.168 78.5786 49.3508 78.2261 49.6181 77.9559C49.8846 77.6866 50.2258 77.5084 50.6134 77.4047C51.383 77.1987 52.3556 77.2803 53.3732 77.5427C55.4115 78.0683 57.7261 79.3445 59.174 80.7252L59.3889 80.9302L59.1134 81.0434C57.2501 81.809 54.6193 82.1669 52.526 81.9254C51.481 81.8048 50.5452 81.5321 49.9057 81.0642C49.5836 80.8286 49.3324 80.5401 49.1849 80.1934C49.037 79.8456 48.9988 79.4518 49.0834 79.0152Z"
      fill="#DFBD74"
    />
    <path
      fill-rule="evenodd"
      clip-rule="evenodd"
      d="M68.515 56.0989L68.7053 55.8083L68.8547 56.1216C69.2079 56.8622 69.5602 58.1249 69.5987 59.2365C69.618 59.7914 69.5599 60.3294 69.368 60.7499C69.1713 61.1809 68.8296 61.4932 68.3051 61.5555C68.0836 61.5818 67.8869 61.5333 67.7277 61.4102C67.5733 61.2907 67.4726 61.1153 67.4085 60.9195C67.2817 60.5314 67.2788 60.0015 67.3508 59.4397C67.4955 58.3114 67.9573 56.9505 68.515 56.0989Z"
      fill="#DFBD74"
    />
    <path
      d="M72.8845 54.7673C72.9969 54.661 73.1622 54.6311 73.3053 54.6911C73.4483 54.7511 73.5418 54.8896 73.5433 55.0437C73.5455 55.2704 73.5102 55.4498 73.4699 55.5791C73.4499 55.6435 73.4287 55.6951 73.4107 55.7335C73.4048 55.7461 73.3992 55.7573 73.3941 55.767C68.7273 68.0577 58.5172 74.3898 43.4134 79.6361C44.5735 79.9856 45.7546 80.328 46.9555 80.6647L48.366 81.0603L45.2931 81.8212C43.8554 81.3798 42.4214 80.9267 40.9935 80.4544C39.6283 80.9042 38.2575 81.3368 36.8833 81.7587L33.8104 80.9978L35.2209 80.6022C36.3554 80.284 37.4722 79.961 38.5703 79.6315C23.5723 74.3982 13.4292 68.0679 8.78233 55.8296C8.76174 55.79 8.73319 55.7272 8.70654 55.6416C8.66625 55.5123 8.63094 55.333 8.63314 55.1063C8.63463 54.9522 8.72813 54.8137 8.87118 54.7537C9.01422 54.6936 9.17953 54.7235 9.292 54.8298C9.43478 54.9647 9.55046 55.159 9.62026 55.2874C9.6593 55.3644 9.74064 55.527 9.75372 55.5613C14.3237 67.5725 25.6569 73.9947 40.9899 78.8852C56.4226 73.9869 67.8332 67.5612 72.4227 55.4987C72.4473 55.4344 72.522 55.2893 72.5562 55.2248C72.626 55.0965 72.7417 54.9021 72.8845 54.7673Z"
      fill="#DFBD74"
    />
  </svg>