<svg width="60" height="126" viewBox="0 0 60 126" fill="none" xmlns="http://www.w3.org/2000/svg">
<g id="Frame 344">
<path id="&#226;&#128;&#156;" d="M40 96C42.7333 96 44.7667 96.9187 46.1 98.7562C47.3667 100.594 48 102.926 48 105.753C48 108.226 47.5 110.629 46.5 112.961C45.5 115.364 44.0667 117.661 42.2 119.852C40.3333 122.113 38.1 124.163 35.5 126L34.3 124.304C37.0333 122.042 39 119.71 40.2 117.307C41.3333 114.975 41.9333 112.572 42 110.099H39.3C37.7 110.099 36.4 109.816 35.4 109.251C34.4 108.756 33.6667 108.014 33.2 107.025C32.6667 106.106 32.4 105.046 32.4 103.845C32.4 101.654 33.1333 99.7809 34.6 98.2261C36 96.742 37.8 96 40 96ZM19.7 96C22.4333 96 24.4667 96.9187 25.8 98.7562C27.0667 100.594 27.7 102.926 27.7 105.753C27.7 108.226 27.2 110.629 26.2 112.961C25.1333 115.364 23.6667 117.661 21.8 119.852C19.9333 122.113 17.7333 124.163 15.2 126L13.9 124.304C16.7 122.042 18.7 119.71 19.9 117.307C21.0333 114.975 21.6333 112.572 21.7 110.099H19C17.4 110.099 16.1 109.816 15.1 109.251C14.0333 108.756 13.2667 108.014 12.8 107.025C12.2667 106.106 12 105.046 12 103.845C12 101.654 12.7333 99.7809 14.2 98.2261C15.6 96.742 17.4333 96 19.7 96Z" fill="#DFBD74"/>
</g>
</svg>
