<svg width="60" height="126" viewBox="0 0 60 126" fill="none" xmlns="http://www.w3.org/2000/svg">
<g id="Frame 343">
<path id="&#226;&#128;&#156;" d="M20 30C17.2667 30 15.2333 29.0813 13.9 27.2438C12.6333 25.4064 12 23.0742 12 20.2474C12 17.7739 12.5 15.371 13.5 13.0389C14.5 10.636 15.9333 8.33922 17.8 6.14841C19.6667 3.88692 21.9 1.83745 24.5 0L25.7 1.69611C22.9667 3.95759 21 6.28975 19.8 8.69258C18.6667 11.0247 18.0667 13.4276 18 15.9011H20.7C22.3 15.9011 23.6 16.1837 24.6 16.7491C25.6 17.2438 26.3333 17.9859 26.8 18.9753C27.3333 19.894 27.6 20.9541 27.6 22.1555C27.6 24.3463 26.8667 26.2191 25.4 27.7739C24 29.258 22.2 30 20 30ZM40.3 30C37.5667 30 35.5333 29.0813 34.2 27.2438C32.9333 25.4064 32.3 23.0742 32.3 20.2474C32.3 17.7739 32.8 15.371 33.8 13.0389C34.8667 10.636 36.3333 8.33922 38.2 6.14841C40.0667 3.88692 42.2667 1.83745 44.8 0L46.1 1.69611C43.3 3.95759 41.3 6.28975 40.1 8.69258C38.9667 11.0247 38.3667 13.4276 38.3 15.9011H41C42.6 15.9011 43.9 16.1837 44.9 16.7491C45.9667 17.2438 46.7333 17.9859 47.2 18.9753C47.7333 19.894 48 20.9541 48 22.1555C48 24.3463 47.2667 26.2191 45.8 27.7739C44.4 29.258 42.5667 30 40.3 30Z" fill="#DFBD74"/>
</g>
</svg>
